<svg xmlns="http://www.w3.org/2000/svg" xmlns:xlink="http://www.w3.org/1999/xlink" width="500" zoomAndPan="magnify" viewBox="0 0 375 374.999991" height="500" preserveAspectRatio="xMidYMid meet" version="1.0"><defs><g/><clipPath id="e67232cfe9"><path d="M 242 104 L 271 104 L 271 132 L 242 132 Z M 242 104 " clip-rule="nonzero"/></clipPath><clipPath id="206bce1d89"><path d="M 243.890625 101.351562 L 272.5 107.429688 L 266.265625 136.777344 L 237.652344 130.695312 Z M 243.890625 101.351562 " clip-rule="nonzero"/></clipPath><clipPath id="4ac58a4fe6"><path d="M 243.890625 101.351562 L 272.5 107.429688 L 266.265625 136.777344 L 237.652344 130.695312 Z M 243.890625 101.351562 " clip-rule="nonzero"/></clipPath><clipPath id="f5a003c4ae"><path d="M 248 112 L 263 112 L 263 126 L 248 126 Z M 248 112 " clip-rule="nonzero"/></clipPath><clipPath id="51c437b325"><path d="M 249.582031 111.160156 L 263.519531 114.121094 L 260.398438 128.796875 L 246.460938 125.832031 Z M 249.582031 111.160156 " clip-rule="nonzero"/></clipPath><clipPath id="5c5993f41d"><path d="M 249.582031 111.160156 L 263.519531 114.121094 L 260.398438 128.796875 L 246.460938 125.832031 Z M 249.582031 111.160156 " clip-rule="nonzero"/></clipPath></defs><g clip-path="url(#e67232cfe9)"><g clip-path="url(#206bce1d89)"><g clip-path="url(#4ac58a4fe6)"><path fill="#000000" d="M 259.769531 120.296875 C 260.683594 123.523438 261.625 126.734375 262.542969 129.941406 C 262.835938 130.988281 261.652344 131.703125 260.738281 131.015625 C 258.117188 129.070312 255.707031 126.910156 253.414062 124.636719 C 250.628906 126.679688 247.960938 128.839844 245.386719 131.089844 C 244.257812 132.097656 242.402344 130.527344 243.535156 129.519531 C 244.21875 127.621094 245.199219 125.78125 246.054688 123.964844 C 246.792969 122.382812 247.546875 120.824219 248.304688 119.246094 C 246.292969 116.984375 244.316406 114.660156 242.316406 112.351562 C 241.808594 111.75 242.363281 110.691406 243.179688 110.722656 C 246.042969 110.863281 248.875 111.039062 251.726562 111.222656 C 252.730469 109.15625 253.691406 107.078125 254.453125 104.933594 C 254.703125 104.1875 255.984375 103.921875 256.273438 104.875 C 256.929688 107.109375 257.457031 109.382812 257.914062 111.667969 C 261.617188 111.9375 265.320312 112.230469 269.015625 112.546875 C 270.035156 112.621094 270.851562 113.972656 269.742188 114.558594 C 266.3125 116.300781 262.988281 118.226562 259.769531 120.296875 Z M 259.769531 120.296875 " fill-opacity="1" fill-rule="nonzero"/></g></g></g><path stroke-linecap="butt" transform="matrix(0.749543, -0.0261746, 0.0261746, 0.749543, 93.59534, 193.454709)" fill="none" stroke-linejoin="miter" d="M 71.343621 2.979142 C 71.344216 3.260585 71.286463 3.571258 71.175387 3.916551 C 71.122542 4.086685 71.13434 4.196539 71.215805 4.251499 C 71.302475 4.30664 71.542094 4.309796 71.945437 4.25092 C 72.18185 4.196638 72.397443 4.141628 72.592215 4.085892 C 72.786987 4.030155 72.882679 3.976171 72.884679 3.918914 C 72.93873 3.863475 72.895701 3.75253 72.760796 3.586263 C 72.621232 3.404198 72.433549 3.256933 72.197565 3.149674 C 71.86384 2.856598 71.655699 2.698196 71.573326 2.669262 C 71.490952 2.640328 71.414263 2.747091 71.343621 2.979142 Z M 67.177227 16.628511 C 66.828745 17.653432 66.328934 19.131681 65.677793 21.063258 C 65.021447 22.994653 64.323575 25.070521 63.573767 27.290497 C 62.834188 29.516042 62.157682 31.577021 61.528452 33.478094 C 60.904246 35.384554 60.426709 36.821889 60.090637 37.789917 C 59.177503 40.806762 58.302557 43.923959 57.465616 47.146713 C 56.650041 50.354579 55.968297 53.311755 55.425588 56.018422 C 54.898859 58.715224 54.573759 60.861436 54.445084 62.456875 C 54.394024 63.471336 54.377598 64.090932 54.4064 64.310821 C 54.434657 64.546326 54.592134 64.8124 54.884217 65.104022 C 54.998301 65.269562 55.121341 65.477108 55.258543 65.72684 C 55.410814 65.992733 55.516967 66.236169 55.571794 66.456967 C 55.628671 66.917566 55.454273 67.58376 55.053806 68.455732 C 54.647407 69.348343 54.222616 70.021428 53.779252 70.480192 C 53.376868 70.8101 52.852651 71.047158 52.196371 71.185797 C 51.544751 71.340233 50.961591 71.32508 50.44671 71.145544 C 49.934671 71.033856 49.435289 70.708938 48.948747 70.165585 C 48.462205 69.622232 48.080312 69.0669 47.803067 68.499587 C 47.509 67.817033 47.266886 66.542182 47.071883 64.664441 C 46.876698 62.791905 46.725038 60.71764 46.61188 58.436259 C 46.556573 54.796695 46.630652 51.630685 46.823706 48.937866 C 47.017305 46.229431 47.398538 43.371203 47.967768 40.352771 C 48.535594 37.673039 49.136336 35.244608 49.759766 33.061911 C 50.383559 30.868804 51.238577 28.173043 52.324639 24.979834 C 52.781834 23.677288 53.17541 22.554923 53.510028 21.628537 C 53.855783 20.681693 54.029569 20.182246 54.031568 20.124989 C 53.974741 19.961448 53.803698 19.934629 53.508028 20.044168 C 51.924668 20.614257 50.22534 21.221988 48.404476 21.877591 C 46.588998 22.528169 45.363406 23.00131 44.738291 23.292171 C 44.16759 23.517183 43.328518 23.816207 42.221075 24.189243 C 41.10879 24.551687 39.954682 24.917883 38.758569 25.293034 C 37.568206 25.652752 36.48897 25.964235 35.531088 26.233053 C 34.558318 26.480504 33.901493 26.634759 33.550384 26.690247 C 32.415229 26.812163 31.447499 26.616813 30.657604 26.104559 C 29.852093 25.591759 29.39346 24.846133 29.281343 23.878088 C 29.168631 22.628602 29.586234 21.564403 30.533969 20.690696 C 31.46143 19.800647 33.381027 18.705514 36.282533 17.39973 C 36.959881 17.105481 38.017636 16.66296 39.445569 16.066598 C 40.863273 15.464666 42.454201 14.827092 44.218536 14.14867 C 45.983052 13.465043 47.747387 12.78662 49.511722 12.108198 C 51.276238 11.424571 52.807365 10.85787 54.115877 10.398047 L 58.717123 8.771179 L 59.841703 6.56429 C 60.118931 5.938167 60.456325 5.230761 60.843473 4.441709 C 61.246964 3.632381 61.566925 2.976481 61.8039 2.458394 C 62.757734 0.365407 63.687954 -1.499098 64.594197 -3.124711 C 65.510851 -4.74996 66.17037 -5.727539 66.572754 -6.057447 C 68.558828 -7.713101 70.267096 -7.830638 71.697738 -6.415264 C 72.029464 -6.064931 72.266588 -5.691845 72.403723 -5.290982 C 72.556838 -4.899983 72.743893 -4.137783 72.969912 -2.998993 C 73.260988 -1.633836 73.55831 -0.596786 73.861333 0.127772 C 74.180516 0.837261 74.712021 1.585432 75.445255 2.377129 C 75.737338 2.66875 75.955889 2.827516 76.090314 2.858268 C 76.230127 2.883996 76.501522 2.872627 76.904864 2.813751 C 77.180259 2.687869 77.918251 2.447853 79.114001 2.083112 C 80.309932 1.713166 81.621285 1.321193 83.052903 0.917785 C 85.385327 0.238355 87.17344 -0.225565 88.427834 -0.478817 C 89.677387 -0.742661 90.628725 -0.824092 91.276826 -0.728499 C 91.930495 -0.643134 92.568482 -0.407184 93.195993 -0.0204648 C 94.281789 0.674102 94.73097 1.690397 94.548921 3.023398 C 94.382488 4.356943 93.702149 5.333795 92.507721 5.959158 C 92.34418 6.015985 91.68947 6.258909 90.548796 6.688111 C 89.413146 7.122701 88.003373 7.646736 86.319115 8.270628 C 84.639881 8.899907 82.877 9.536688 81.03011 10.191381 C 79.183402 10.840869 77.404724 11.48231 75.69444 12.105293 C 74.793633 12.381315 73.786179 12.726574 72.677826 13.125637 C 71.564087 13.529722 70.697535 13.869479 70.072784 14.149929 L 67.75809 14.918574 Z M 109.929456 39.248905 C 110.096186 39.697706 110.13786 40.444407 110.054115 41.499418 C 109.970369 42.55443 109.783975 43.564165 109.489908 44.523237 C 109.090812 45.952888 107.864989 47.775801 105.822483 50.00275 C 103.780705 52.208879 101.247824 54.449973 98.218453 56.731055 C 92.65288 61.049867 88.04661 62.671349 84.40969 61.606273 C 81.851015 60.855061 80.006571 59.201141 78.865947 56.644151 C 78.518259 55.855495 78.304269 55.118411 78.223796 54.438105 C 78.138662 53.742002 78.095799 52.432416 78.095567 50.498939 C 78.094147 48.002577 78.324165 45.743603 78.78526 43.732428 C 79.226262 41.699706 80.021958 39.210334 81.157096 36.253356 C 85.661016 24.877569 91.318382 16.288526 98.139787 10.481385 C 99.735161 9.119567 101.104399 8.114657 102.242479 7.461269 C 103.380558 6.807881 104.62897 6.278211 105.992739 5.877645 C 109.241156 5.08428 111.178352 6.02225 111.804325 8.691555 C 111.969106 9.49467 111.810968 10.73991 111.32507 12.416682 C 110.839536 14.083044 110.109838 15.876379 109.136159 17.791481 C 108.178459 19.696719 107.100379 21.467465 105.907124 23.103901 C 105.004401 24.479484 104.33847 25.342186 103.909516 25.686801 C 103.475719 26.020823 103.035032 26.104453 102.577044 25.937326 C 102.006724 25.703738 101.789214 25.216683 101.929539 24.481549 C 102.080274 23.746779 102.670143 22.375905 103.698963 20.374133 C 104.378344 19.126249 105.006583 17.850522 105.57345 16.541383 C 106.14534 15.237631 106.608219 14.070783 106.972498 13.041202 C 107.347005 12.01719 107.532359 11.335743 107.533582 11.00225 C 107.531962 10.600907 107.288592 10.555928 106.803108 10.877722 C 106.318168 11.183901 105.475692 11.878881 104.281067 12.957638 C 102.461739 14.613903 100.605165 16.889038 98.700572 19.793087 C 96.795978 22.697137 95.019382 25.965251 93.365215 29.607657 C 92.396972 31.814793 91.512375 34.014428 90.721835 36.206924 C 89.931113 38.404626 89.303453 40.409984 88.843878 42.228386 C 88.389509 44.04697 88.157342 45.472027 88.15797 46.498716 L 88.158168 47.686947 L 89.26381 46.917773 C 89.553068 46.693356 90.109855 46.269822 90.928966 45.646987 C 91.763874 45.019493 92.573483 44.370269 93.368567 43.689269 C 95.591055 41.979332 97.382407 40.676473 98.742987 39.770279 C 100.10393 38.853675 101.282924 38.222562 102.285173 37.877121 C 103.2824 37.526294 104.325497 37.354259 105.409443 37.355631 C 106.535212 37.353251 107.503669 37.527781 108.325407 37.874379 C 109.157555 38.22134 109.693852 38.683046 109.929456 39.248905 Z M 135.693613 38.397543 C 136.77351 38.21637 138.240225 38.001802 140.088735 37.748451 C 141.937608 37.48469 143.906927 37.204289 146.00226 36.89702 C 148.113573 36.579886 150.150377 36.307053 152.107286 36.083545 C 154.07981 35.860583 155.747164 35.720771 157.109164 35.669314 C 158.466687 35.596855 159.293399 35.651782 159.5893 35.834095 C 161.406099 37.085763 162.301452 38.607521 162.275542 40.394163 C 162.244245 42.185829 161.293402 43.596213 159.423014 44.625314 C 159.295909 44.683413 158.554529 44.871196 157.193669 45.188479 C 155.827967 45.49517 154.163207 45.859168 152.193822 46.2907 C 150.235393 46.70698 148.182907 47.130399 146.046775 47.56132 C 143.921054 47.992605 141.978785 48.393815 140.214583 48.769974 C 138.450926 49.130518 137.16996 49.398476 136.377256 49.56362 C 132.339588 50.423231 129.492943 51.053435 127.83714 51.459438 C 126.187088 51.850006 125.301896 52.126574 125.191976 52.289504 C 125.137744 52.350148 125.018438 52.632615 124.838901 53.147496 C 124.669956 53.657535 124.47801 54.22931 124.253015 54.852045 C 123.908945 56.0491 123.423361 57.418404 122.796263 58.959958 C 122.16971 60.485896 121.59007 61.862339 121.047114 63.083717 C 120.519773 64.305641 120.107689 65.062554 119.816068 65.354638 C 119.414345 65.814857 118.900356 66.057483 118.274101 66.082517 C 117.652869 66.112939 117.143557 65.923173 116.756392 65.51879 C 115.950105 64.729754 115.915536 63.331862 116.652323 61.335526 C 117.054492 60.265577 117.42186 59.147508 117.754429 57.981321 C 118.102795 56.810474 118.361516 55.818899 118.52557 55.00121 C 118.705784 54.16845 118.71512 53.751855 118.548374 53.751244 C 118.423268 53.752087 117.914914 53.833353 117.028334 54.000431 C 116.152165 54.167871 115.180122 54.394502 114.112023 54.685528 C 113.025467 54.90816 111.803212 55.136477 110.445078 55.375683 C 109.066669 55.598546 107.983021 55.737895 107.194133 55.793731 C 105.941441 55.849005 105.060315 55.859927 104.545367 55.831522 C 104.035625 55.803298 103.462397 55.652993 102.841479 55.375946 C 101.243643 54.569691 100.319769 53.416955 100.069855 51.917736 C 99.804871 50.402357 100.30032 49.049032 101.545973 47.852192 C 102.758214 46.716723 104.541205 45.653301 106.899969 44.667312 C 109.248868 43.665343 112.07337 42.773791 115.379044 41.982425 C 117.366952 41.468155 118.74204 41.041927 119.504125 40.708946 C 120.282371 40.360894 121.041499 39.814138 121.776484 39.063289 C 122.121611 38.731382 122.423527 38.293735 122.671821 37.749986 C 122.935731 37.206782 123.273984 36.176292 123.692149 34.648289 C 124.121269 33.105033 124.767767 30.709469 125.631642 27.461598 C 127.155697 21.724834 128.460673 17.038355 129.546751 13.396957 C 130.627987 9.744967 131.581606 6.911938 132.402402 4.89769 C 133.234154 2.86819 133.991134 1.487517 134.673522 0.750466 C 135.296472 0.073878 135.96075 -0.293788 136.67156 -0.35235 C 137.376983 -0.405889 137.992514 -0.123819 138.502174 0.503726 C 139.076476 1.070989 139.359406 1.774 139.356349 2.607734 C 139.359042 3.426035 139.072642 4.911737 138.502355 7.065021 C 138.336616 7.632499 138.051505 8.633575 137.652409 10.063226 C 137.248472 11.482285 136.774621 13.112574 136.235878 14.959481 C 135.707546 16.806751 135.15712 18.68973 134.589989 20.603395 C 134.018016 22.506468 133.476976 24.26991 132.961484 25.898745 C 132.451923 27.506942 132.047143 28.800895 131.752713 29.770377 C 131.588791 30.285803 131.958424 30.147577 132.856405 29.355517 C 133.775752 28.548569 135.714204 26.615042 138.672123 23.544526 C 140.492063 21.721514 142.122369 20.105551 143.568429 18.691615 C 145.025626 17.257222 145.901878 16.49046 146.192524 16.375534 C 146.708149 16.086061 147.057324 15.936698 147.255302 15.9384 C 147.448075 15.93992 147.745248 16.085797 148.152027 16.376212 C 148.941923 16.888466 149.29827 17.578405 149.210839 18.440463 C 149.12916 19.287086 148.572769 20.445457 147.546873 21.915758 C 146.863328 22.835171 145.926779 23.985479 144.731657 25.376909 C 143.536717 26.763134 142.198148 28.232939 140.71129 29.770527 C 139.24041 31.298249 137.787691 32.753645 136.358701 34.126485 C 134.940484 35.489279 133.692716 36.597449 132.609828 37.461225 C 132.163804 37.846935 131.766261 38.187435 131.422589 38.477702 C 131.08969 38.757921 130.949266 38.898939 131.006704 38.895734 C 131.062144 38.949785 131.537267 38.924684 132.442668 38.815591 C 133.35866 38.701656 134.442309 38.562306 135.693613 38.397543 Z M 175.957036 22.00106 C 176.306129 20.809393 176.587307 19.771698 176.810617 18.898752 C 177.044882 18.010553 177.139683 17.534405 177.079038 17.480172 C 177.023599 17.426121 176.483651 17.516707 175.453987 17.751749 C 174.430074 17.971357 173.247462 18.258384 171.916742 18.607989 C 170.581543 18.936592 169.428708 19.266351 168.458598 19.586856 C 167.483828 19.891565 166.998046 20.072638 166.996229 20.12469 C 166.999434 20.182128 167.201824 20.355964 167.603398 20.646197 C 168.005336 20.92602 168.463439 21.239074 168.977709 21.585357 C 169.534166 21.91748 170.179771 22.383003 170.914524 22.981927 C 171.665076 23.576191 172.29609 24.161069 172.812954 24.731539 C 173.326612 25.244569 173.759715 25.676614 174.122853 26.022832 C 174.496947 26.353797 174.683903 26.521883 174.683903 26.521883 C 174.74116 26.523882 174.891944 26.08617 175.146667 25.209108 C 175.406958 24.321818 175.678816 23.25253 175.957036 22.00106 Z M 172.896021 28.91928 C 172.324098 27.836161 171.403611 26.735657 170.123786 25.627817 C 168.844143 24.514772 167.490107 23.591955 166.061861 22.85416 C 164.701281 22.118729 163.762733 21.684668 163.246579 21.541567 C 162.735995 21.388238 161.907829 21.374952 160.767287 21.501892 C 158.561555 21.836575 156.684508 21.265511 155.146375 19.794268 C 154.11724 18.820258 153.506882 17.793123 153.310275 16.707475 C 153.118693 15.627214 153.359981 14.687146 154.038982 13.897862 C 154.665931 13.10676 156.018215 12.288873 158.101222 11.439176 C 160.174181 10.578705 162.726379 9.724547 165.768225 8.877065 C 168.810617 8.013967 172.136748 7.233738 175.747163 6.520764 C 179.357396 5.812995 183.04655 5.233058 186.8096 4.775566 C 190.67373 4.259066 193.839029 3.905776 196.310886 3.710674 C 198.783288 3.499956 200.774931 3.475699 202.291384 3.627673 C 203.803178 3.76385 205.011188 4.092668 205.915597 4.608921 C 206.831143 5.104716 207.655773 5.816221 208.395054 6.733205 C 209.530638 8.091372 209.816327 9.461552 209.247279 10.833153 C 208.957641 11.516169 208.414833 11.987096 207.62388 12.251319 C 206.828267 12.499746 205.524184 12.683513 203.70679 12.792028 C 202.678102 12.849912 201.09294 13.023864 198.956511 13.314063 C 196.830855 13.594216 194.57289 13.932287 192.187637 14.333663 C 189.797543 14.724446 187.693914 15.120021 185.871546 15.520207 L 182.874679 16.124319 L 182.290759 18.66799 C 182.110065 19.365234 181.777612 20.677348 181.288195 22.604149 C 180.819416 24.536883 180.323703 26.494734 179.811465 28.478065 C 179.24202 30.756455 178.796723 32.76297 178.475391 34.502816 C 178.169856 36.238001 178.018195 37.446987 178.020591 38.124566 C 178.017832 39.099022 177.888198 40.42343 177.621099 42.102631 C 177.374638 43.787765 177.044829 45.621121 176.642082 47.603065 C 176.239152 49.590213 175.81147 51.540017 175.353647 53.457499 C 174.906779 55.359729 174.483707 57.028272 174.079406 58.457741 C 173.691085 59.877345 173.354468 60.860988 173.058781 61.418717 C 172.602809 62.387769 171.98979 62.929205 171.224929 63.043206 C 170.465454 63.152184 169.679062 62.83809 168.87598 62.106492 C 168.428171 61.647876 168.117944 60.980392 167.934887 60.103678 C 167.767447 59.227509 167.798364 57.894443 168.017229 56.104115 C 168.257459 54.2989 168.740664 51.803826 169.477071 48.624465 C 170.213477 45.445103 171.207878 41.294988 172.45525 36.168731 L 173.829562 30.54139 Z M 172.896021 28.91928 " stroke="#000000" stroke-width="6.400005" stroke-opacity="1" stroke-miterlimit="4"/><g fill="#000000" fill-opacity="1"><g transform="translate(125.71245, 238.111041)"><g><path d="M 21.4375 -44.28125 C 21.445312 -44.070312 21.410156 -43.835938 21.328125 -43.578125 C 21.296875 -43.453125 21.3125 -43.367188 21.375 -43.328125 C 21.4375 -43.285156 21.617188 -43.289062 21.921875 -43.34375 C 22.097656 -43.394531 22.257812 -43.441406 22.40625 -43.484375 C 22.550781 -43.535156 22.617188 -43.582031 22.609375 -43.625 C 22.648438 -43.664062 22.613281 -43.75 22.5 -43.875 C 22.394531 -44 22.253906 -44.101562 22.078125 -44.1875 C 21.816406 -44.394531 21.65625 -44.503906 21.59375 -44.515625 C 21.53125 -44.535156 21.476562 -44.457031 21.4375 -44.28125 Z M 18.671875 -33.953125 C 18.429688 -33.171875 18.09375 -32.046875 17.65625 -30.578125 C 17.21875 -29.117188 16.75 -27.546875 16.25 -25.859375 C 15.75 -24.171875 15.289062 -22.601562 14.875 -21.15625 C 14.457031 -19.71875 14.132812 -18.628906 13.90625 -17.890625 C 13.300781 -15.609375 12.734375 -13.253906 12.203125 -10.828125 C 11.671875 -8.398438 11.238281 -6.164062 10.90625 -4.125 C 10.570312 -2.082031 10.378906 -0.460938 10.328125 0.734375 C 10.316406 1.492188 10.320312 1.957031 10.34375 2.125 C 10.375 2.300781 10.503906 2.492188 10.734375 2.703125 C 10.816406 2.828125 10.914062 2.984375 11.03125 3.171875 C 11.15625 3.359375 11.238281 3.535156 11.28125 3.703125 C 11.332031 4.046875 11.21875 4.550781 10.9375 5.21875 C 10.664062 5.894531 10.367188 6.410156 10.046875 6.765625 C 9.753906 7.023438 9.363281 7.21875 8.875 7.34375 C 8.382812 7.46875 7.945312 7.472656 7.5625 7.359375 C 7.175781 7.285156 6.789062 7.050781 6.40625 6.65625 C 6.03125 6.257812 5.734375 5.851562 5.515625 5.4375 C 5.273438 4.9375 5.054688 3.984375 4.859375 2.578125 C 4.660156 1.179688 4.492188 -0.367188 4.359375 -2.078125 C 4.222656 -4.804688 4.191406 -7.1875 4.265625 -9.21875 C 4.335938 -11.25 4.546875 -13.394531 4.890625 -15.65625 C 5.253906 -17.6875 5.640625 -19.53125 6.046875 -21.1875 C 6.460938 -22.84375 7.035156 -24.878906 7.765625 -27.296875 C 8.066406 -28.296875 8.332031 -29.148438 8.5625 -29.859375 C 8.800781 -30.566406 8.921875 -30.941406 8.921875 -30.984375 C 8.867188 -31.109375 8.734375 -31.125 8.515625 -31.03125 C 7.347656 -30.5625 6.085938 -30.054688 4.734375 -29.515625 C 3.390625 -28.984375 2.488281 -28.601562 2.03125 -28.375 C 1.601562 -28.1875 0.976562 -27.941406 0.15625 -27.640625 C -0.664062 -27.335938 -1.519531 -27.03125 -2.40625 -26.71875 C -3.289062 -26.414062 -4.09375 -26.15625 -4.8125 -25.9375 C -5.53125 -25.71875 -6.015625 -25.582031 -6.265625 -25.53125 C -7.117188 -25.40625 -7.851562 -25.523438 -8.46875 -25.890625 C -9.082031 -26.253906 -9.441406 -26.800781 -9.546875 -27.53125 C -9.660156 -28.46875 -9.378906 -29.273438 -8.703125 -29.953125 C -8.023438 -30.640625 -6.613281 -31.515625 -4.46875 -32.578125 C -3.96875 -32.804688 -3.191406 -33.160156 -2.140625 -33.640625 C -1.085938 -34.128906 0.0859375 -34.648438 1.390625 -35.203125 C 2.703125 -35.765625 4.007812 -36.320312 5.3125 -36.875 C 6.613281 -37.4375 7.75 -37.90625 8.71875 -38.28125 L 12.125 -39.609375 L 12.90625 -41.296875 C 13.09375 -41.773438 13.320312 -42.316406 13.59375 -42.921875 C 13.875 -43.535156 14.097656 -44.035156 14.265625 -44.421875 C 14.929688 -46.023438 15.582031 -47.445312 16.21875 -48.6875 C 16.863281 -49.925781 17.332031 -50.675781 17.625 -50.9375 C 19.070312 -52.226562 20.347656 -52.363281 21.453125 -51.34375 C 21.710938 -51.09375 21.898438 -50.816406 22.015625 -50.515625 C 22.140625 -50.222656 22.300781 -49.65625 22.5 -48.8125 C 22.75 -47.800781 23 -47.03125 23.25 -46.5 C 23.507812 -45.96875 23.925781 -45.414062 24.5 -44.84375 C 24.726562 -44.632812 24.894531 -44.519531 25 -44.5 C 25.101562 -44.488281 25.304688 -44.507812 25.609375 -44.5625 C 25.804688 -44.65625 26.347656 -44.851562 27.234375 -45.15625 C 28.117188 -45.46875 29.09375 -45.796875 30.15625 -46.140625 C 31.894531 -46.710938 33.226562 -47.109375 34.15625 -47.328125 C 35.082031 -47.554688 35.789062 -47.644531 36.28125 -47.59375 C 36.769531 -47.539062 37.253906 -47.378906 37.734375 -47.109375 C 38.566406 -46.617188 38.929688 -45.867188 38.828125 -44.859375 C 38.734375 -43.859375 38.25 -43.109375 37.375 -42.609375 C 37.25 -42.554688 36.765625 -42.351562 35.921875 -42 C 35.085938 -41.65625 34.046875 -41.222656 32.796875 -40.703125 C 31.554688 -40.191406 30.253906 -39.671875 28.890625 -39.140625 C 27.523438 -38.609375 26.207031 -38.085938 24.9375 -37.578125 C 24.269531 -37.335938 23.523438 -37.050781 22.703125 -36.71875 C 21.878906 -36.394531 21.238281 -36.117188 20.78125 -35.890625 L 19.0625 -35.25 Z M 18.671875 -33.953125 "/></g></g></g><g fill="#000000" fill-opacity="1"><g transform="translate(157.179534, 237.012186)"><g><path d="M 19.84375 -17.015625 C 19.976562 -16.679688 20.023438 -16.117188 19.984375 -15.328125 C 19.953125 -14.535156 19.835938 -13.78125 19.640625 -13.0625 C 19.378906 -11.976562 18.507812 -10.578125 17.03125 -8.859375 C 15.5625 -7.148438 13.726562 -5.398438 11.53125 -3.609375 C 7.46875 -0.222656 4.054688 1.113281 1.296875 0.40625 C -0.640625 -0.0820312 -2.066406 -1.273438 -2.984375 -3.171875 C -3.265625 -3.753906 -3.445312 -4.300781 -3.53125 -4.8125 C -3.613281 -5.320312 -3.679688 -6.300781 -3.734375 -7.75 C -3.796875 -9.625 -3.679688 -11.320312 -3.390625 -12.84375 C -3.109375 -14.375 -2.578125 -16.257812 -1.796875 -18.5 C 1.273438 -27.15625 5.289062 -33.75 10.25 -38.28125 C 11.40625 -39.332031 12.398438 -40.117188 13.234375 -40.640625 C 14.078125 -41.160156 15.003906 -41.585938 16.015625 -41.921875 C 18.429688 -42.597656 19.90625 -41.945312 20.4375 -39.96875 C 20.582031 -39.375 20.492188 -38.441406 20.171875 -37.171875 C 19.859375 -35.910156 19.363281 -34.550781 18.6875 -33.09375 C 18.007812 -31.632812 17.25 -30.273438 16.40625 -29.015625 C 15.757812 -27.960938 15.28125 -27.300781 14.96875 -27.03125 C 14.65625 -26.757812 14.320312 -26.679688 13.96875 -26.796875 C 13.539062 -26.960938 13.367188 -27.320312 13.453125 -27.875 C 13.546875 -28.4375 13.953125 -29.476562 14.671875 -31 C 15.148438 -31.957031 15.582031 -32.929688 15.96875 -33.921875 C 16.363281 -34.921875 16.6875 -35.8125 16.9375 -36.59375 C 17.1875 -37.375 17.304688 -37.890625 17.296875 -38.140625 C 17.285156 -38.441406 17.101562 -38.46875 16.75 -38.21875 C 16.394531 -37.96875 15.785156 -37.421875 14.921875 -36.578125 C 13.597656 -35.296875 12.257812 -33.539062 10.90625 -31.3125 C 9.5625 -29.082031 8.316406 -26.582031 7.171875 -23.8125 C 6.503906 -22.125 5.898438 -20.445312 5.359375 -18.78125 C 4.828125 -17.113281 4.410156 -15.59375 4.109375 -14.21875 C 3.816406 -12.851562 3.6875 -11.785156 3.71875 -11.015625 L 3.75 -10.125 L 4.546875 -10.734375 C 4.765625 -10.910156 5.175781 -11.242188 5.78125 -11.734375 C 6.382812 -12.222656 6.972656 -12.726562 7.546875 -13.25 C 9.171875 -14.582031 10.476562 -15.609375 11.46875 -16.328125 C 12.457031 -17.046875 13.320312 -17.546875 14.0625 -17.828125 C 14.800781 -18.117188 15.578125 -18.28125 16.390625 -18.3125 C 17.234375 -18.34375 17.96875 -18.238281 18.59375 -18 C 19.226562 -17.757812 19.644531 -17.429688 19.84375 -17.015625 Z M 19.84375 -17.015625 "/></g></g></g><g fill="#000000" fill-opacity="1"><g transform="translate(182.314867, 236.134441)"><g><path d="M 13.984375 -17.453125 C 14.796875 -17.609375 15.890625 -17.804688 17.265625 -18.046875 C 18.640625 -18.296875 20.113281 -18.5625 21.6875 -18.84375 C 23.257812 -19.132812 24.78125 -19.390625 26.25 -19.609375 C 27.71875 -19.828125 28.957031 -19.976562 29.96875 -20.0625 C 30.988281 -20.144531 31.613281 -20.125 31.84375 -20 C 33.238281 -19.101562 33.945312 -17.984375 33.96875 -16.640625 C 34 -15.296875 33.328125 -14.21875 31.953125 -13.40625 C 31.859375 -13.363281 31.300781 -13.207031 30.28125 -12.9375 C 29.269531 -12.664062 28.03125 -12.34375 26.5625 -11.96875 C 25.101562 -11.601562 23.582031 -11.234375 22 -10.859375 C 20.414062 -10.484375 18.960938 -10.132812 17.640625 -9.8125 C 16.328125 -9.488281 15.378906 -9.253906 14.796875 -9.109375 C 11.796875 -8.359375 9.679688 -7.8125 8.453125 -7.46875 C 7.222656 -7.125 6.566406 -6.890625 6.484375 -6.765625 C 6.453125 -6.722656 6.375 -6.503906 6.25 -6.109375 C 6.132812 -5.722656 6.003906 -5.289062 5.859375 -4.8125 C 5.628906 -3.914062 5.296875 -2.878906 4.859375 -1.703125 C 4.429688 -0.535156 4.035156 0.507812 3.671875 1.4375 C 3.304688 2.363281 3.015625 2.941406 2.796875 3.171875 C 2.503906 3.523438 2.125 3.71875 1.65625 3.75 C 1.195312 3.789062 0.816406 3.664062 0.515625 3.375 C -0.109375 2.800781 -0.171875 1.753906 0.328125 0.234375 C 0.597656 -0.578125 0.84375 -1.421875 1.0625 -2.296875 C 1.289062 -3.179688 1.457031 -3.9375 1.5625 -4.5625 C 1.675781 -5.1875 1.671875 -5.5 1.546875 -5.5 C 1.453125 -5.5 1.078125 -5.421875 0.421875 -5.265625 C -0.234375 -5.117188 -0.960938 -4.921875 -1.765625 -4.671875 C -2.566406 -4.484375 -3.476562 -4.285156 -4.5 -4.078125 C -5.519531 -3.867188 -6.328125 -3.734375 -6.921875 -3.671875 C -7.859375 -3.597656 -8.519531 -3.5625 -8.90625 -3.5625 C -9.289062 -3.570312 -9.71875 -3.675781 -10.1875 -3.875 C -11.40625 -4.4375 -12.128906 -5.273438 -12.359375 -6.390625 C -12.597656 -7.515625 -12.265625 -8.539062 -11.359375 -9.46875 C -10.484375 -10.351562 -9.175781 -11.195312 -7.4375 -12 C -5.695312 -12.800781 -3.597656 -13.546875 -1.140625 -14.234375 C 0.335938 -14.671875 1.359375 -15.023438 1.921875 -15.296875 C 2.492188 -15.566406 3.046875 -15.992188 3.578125 -16.578125 C 3.828125 -16.835938 4.039062 -17.171875 4.21875 -17.578125 C 4.40625 -17.992188 4.632812 -18.785156 4.90625 -19.953125 C 5.1875 -21.117188 5.609375 -22.929688 6.171875 -25.390625 C 7.160156 -29.734375 8.015625 -33.28125 8.734375 -36.03125 C 9.453125 -38.789062 10.09375 -40.9375 10.65625 -42.46875 C 11.21875 -44.007812 11.742188 -45.066406 12.234375 -45.640625 C 12.679688 -46.160156 13.171875 -46.453125 13.703125 -46.515625 C 14.234375 -46.578125 14.703125 -46.378906 15.109375 -45.921875 C 15.546875 -45.515625 15.773438 -45 15.796875 -44.375 C 15.816406 -43.757812 15.644531 -42.632812 15.28125 -41 C 15.164062 -40.570312 14.972656 -39.820312 14.703125 -38.75 C 14.441406 -37.675781 14.132812 -36.4375 13.78125 -35.03125 C 13.4375 -33.632812 13.070312 -32.210938 12.6875 -30.765625 C 12.3125 -29.316406 11.953125 -27.976562 11.609375 -26.75 C 11.273438 -25.53125 11.015625 -24.550781 10.828125 -23.8125 C 10.710938 -23.425781 10.984375 -23.539062 11.640625 -24.15625 C 12.296875 -24.78125 13.691406 -26.285156 15.828125 -28.671875 C 17.148438 -30.078125 18.335938 -31.332031 19.390625 -32.4375 C 20.441406 -33.539062 21.070312 -34.140625 21.28125 -34.234375 C 21.664062 -34.460938 21.929688 -34.578125 22.078125 -34.578125 C 22.222656 -34.585938 22.445312 -34.488281 22.75 -34.28125 C 23.363281 -33.914062 23.648438 -33.410156 23.609375 -32.765625 C 23.566406 -32.128906 23.179688 -31.242188 22.453125 -30.109375 C 21.960938 -29.410156 21.285156 -28.523438 20.421875 -27.453125 C 19.566406 -26.378906 18.601562 -25.242188 17.53125 -24.046875 C 16.46875 -22.859375 15.414062 -21.734375 14.375 -20.671875 C 13.34375 -19.609375 12.441406 -18.738281 11.671875 -18.0625 C 11.347656 -17.757812 11.0625 -17.5 10.8125 -17.28125 C 10.5625 -17.0625 10.457031 -16.953125 10.5 -16.953125 C 10.539062 -16.910156 10.898438 -16.941406 11.578125 -17.046875 C 12.253906 -17.148438 13.054688 -17.285156 13.984375 -17.453125 Z M 13.984375 -17.453125 "/></g></g></g><g fill="#000000" fill-opacity="1"><g transform="translate(217.491451, 234.906048)"><g><path d="M 8.578125 -29.5625 C 8.804688 -30.46875 8.992188 -31.253906 9.140625 -31.921875 C 9.285156 -32.585938 9.335938 -32.941406 9.296875 -32.984375 C 9.253906 -33.023438 8.847656 -32.945312 8.078125 -32.75 C 7.316406 -32.550781 6.441406 -32.304688 5.453125 -32.015625 C 4.460938 -31.722656 3.601562 -31.445312 2.875 -31.1875 C 2.15625 -30.925781 1.800781 -30.773438 1.8125 -30.734375 C 1.8125 -30.691406 1.960938 -30.566406 2.265625 -30.359375 C 2.578125 -30.160156 2.929688 -29.941406 3.328125 -29.703125 C 3.753906 -29.460938 4.253906 -29.128906 4.828125 -28.703125 C 5.398438 -28.273438 5.882812 -27.851562 6.28125 -27.4375 C 6.6875 -27.0625 7.03125 -26.75 7.3125 -26.5 C 7.59375 -26.257812 7.734375 -26.140625 7.734375 -26.140625 C 7.773438 -26.140625 7.878906 -26.472656 8.046875 -27.140625 C 8.222656 -27.816406 8.398438 -28.625 8.578125 -29.5625 Z M 6.453125 -24.296875 C 6.003906 -25.097656 5.285156 -25.894531 4.296875 -26.6875 C 3.304688 -27.488281 2.265625 -28.148438 1.171875 -28.671875 C 0.128906 -29.179688 -0.582031 -29.484375 -0.96875 -29.578125 C -1.351562 -29.679688 -1.972656 -29.671875 -2.828125 -29.546875 C -4.472656 -29.234375 -5.894531 -29.613281 -7.09375 -30.6875 C -7.882812 -31.382812 -8.367188 -32.132812 -8.546875 -32.9375 C -8.722656 -33.75 -8.566406 -34.460938 -8.078125 -35.078125 C -7.628906 -35.679688 -6.632812 -36.332031 -5.09375 -37.03125 C -3.5625 -37.726562 -1.664062 -38.429688 0.59375 -39.140625 C 2.851562 -39.859375 5.320312 -40.53125 8 -41.15625 C 10.6875 -41.78125 13.4375 -42.316406 16.25 -42.765625 C 19.132812 -43.242188 21.5 -43.59375 23.34375 -43.8125 C 25.195312 -44.03125 26.691406 -44.101562 27.828125 -44.03125 C 28.960938 -43.957031 29.878906 -43.742188 30.578125 -43.390625 C 31.273438 -43.035156 31.910156 -42.523438 32.484375 -41.859375 C 33.378906 -40.867188 33.628906 -39.851562 33.234375 -38.8125 C 33.035156 -38.289062 32.640625 -37.921875 32.046875 -37.703125 C 31.460938 -37.492188 30.488281 -37.328125 29.125 -37.203125 C 28.351562 -37.128906 27.171875 -36.957031 25.578125 -36.6875 C 23.992188 -36.425781 22.3125 -36.113281 20.53125 -35.75 C 18.75 -35.394531 17.179688 -35.039062 15.828125 -34.6875 L 13.59375 -34.15625 L 13.21875 -32.234375 C 13.101562 -31.710938 12.890625 -30.71875 12.578125 -29.25 C 12.273438 -27.789062 11.960938 -26.3125 11.640625 -24.8125 C 11.265625 -23.082031 10.984375 -21.5625 10.796875 -20.25 C 10.609375 -18.945312 10.523438 -18.039062 10.546875 -17.53125 C 10.566406 -16.800781 10.503906 -15.804688 10.359375 -14.546875 C 10.210938 -13.285156 10.015625 -11.90625 9.765625 -10.40625 C 9.515625 -8.90625 9.242188 -7.429688 8.953125 -5.984375 C 8.660156 -4.535156 8.382812 -3.269531 8.125 -2.1875 C 7.863281 -1.113281 7.632812 -0.367188 7.4375 0.046875 C 7.113281 0.796875 6.664062 1.21875 6.09375 1.3125 C 5.53125 1.414062 4.9375 1.203125 4.3125 0.671875 C 3.96875 0.347656 3.71875 -0.140625 3.5625 -0.796875 C 3.40625 -1.453125 3.390625 -2.457031 3.515625 -3.8125 C 3.640625 -5.164062 3.9375 -7.039062 4.40625 -9.4375 C 4.875 -11.832031 5.507812 -14.972656 6.3125 -18.859375 L 7.203125 -23.109375 Z M 6.453125 -24.296875 "/></g></g></g><path stroke-linecap="butt" transform="matrix(0.747146, -0.0653668, 0.0653668, 0.747146, 13.03591, 149.503145)" fill="none" stroke-linejoin="miter" d="M 47.389961 27.522515 C 47.554427 26.658561 47.640544 25.494972 47.638841 24.020462 C 47.640647 23.163191 47.583564 22.32168 47.472326 21.501573 C 47.361088 20.681465 47.158663 19.947488 46.870694 19.294907 C 46.589274 18.627213 46.168805 18.114658 45.599362 17.751145 C 45.030827 17.377254 44.283744 17.191644 43.368945 17.190033 C 42.354656 17.190174 41.419884 17.416857 40.558986 17.874818 C 39.708465 18.333686 38.951273 18.920969 38.283131 19.625835 C 37.6301 20.337252 37.118911 21.160415 36.743468 22.105247 C 36.384953 23.035875 36.200123 24.013068 36.204091 25.043376 C 36.200605 26.517432 36.582168 27.65397 37.348326 28.458181 C 38.125768 29.252922 39.140388 29.906338 40.386998 30.417976 C 41.638797 30.930068 43.054421 31.362384 44.639515 31.710191 C 46.236347 32.043341 47.890448 32.439011 49.59663 32.896748 C 51.026717 33.283276 52.450645 33.79997 53.86932 34.436455 C 55.29928 35.06347 56.563989 35.90607 57.658711 36.958611 C 58.769907 38.002138 59.665265 39.361387 60.349518 41.042003 C 61.03896 42.723072 61.389338 44.813648 61.390274 47.312823 C 61.390639 50.894192 60.671869 53.910734 59.245251 56.352982 C 57.828556 58.801326 55.860966 60.793671 53.347216 62.335659 C 50.845204 63.86299 47.877778 64.973169 44.429373 65.664837 C 41.00263 66.347942 37.266323 66.685043 33.224734 66.686969 C 29.125617 66.689091 25.777209 66.417056 23.184246 65.876507 C 20.596925 65.331224 18.572037 64.751496 17.100115 64.126037 C 15.334522 63.391235 14.024025 62.534173 13.162527 61.564774 L 16.078013 49.873344 L 31.077799 49.873369 C 31.022028 50.391313 30.965935 51.092216 30.909066 51.981268 C 30.853559 52.854754 30.829505 53.548004 30.826074 54.065299 C 30.829324 54.745253 30.908587 55.45277 31.079427 56.189212 C 31.255455 56.926108 31.530778 57.603724 31.888922 58.231076 C 32.263085 58.854601 32.793421 59.366312 33.474288 59.770943 C 34.155155 60.175574 35.005554 60.375452 36.035408 60.376673 C 37.175129 60.377049 38.180529 60.119947 39.056798 59.605821 C 39.943444 59.092602 40.689609 58.452072 41.284463 57.688512 C 41.880679 56.909385 42.331875 56.054833 42.638051 55.124854 C 42.961155 54.180671 43.120237 53.258736 43.120941 52.354314 C 43.120473 51.104727 42.820306 50.053733 42.225174 49.206975 C 41.625762 48.349386 40.811287 47.619371 39.786485 47.022575 C 38.77206 46.426686 37.58862 45.910118 36.246089 45.478968 C 34.908745 45.048272 33.535991 44.604021 32.117447 44.145308 C 30.744887 43.758585 29.302217 43.276848 27.783339 42.710021 C 26.28567 42.13982 24.912651 41.340027 23.658642 40.315376 C 22.410275 39.285989 21.368019 37.992311 20.536607 36.439983 C 19.717389 34.867809 19.307409 32.860899 19.306668 30.419251 C 19.306109 26.780355 20.232223 23.724442 22.079824 21.251059 C 23.923143 18.766845 26.258015 16.759579 29.079249 15.228807 C 31.896204 13.687204 34.982511 12.592654 38.328249 11.939058 C 41.689553 11.286825 44.876072 10.959135 47.887353 10.961176 C 51.876603 10.959899 55.306797 11.432534 58.177934 12.37908 C 61.056076 13.305326 63.22936 14.399948 64.699149 15.647379 L 61.55323 27.52255 Z M 111.206205 66.001728 L 92.787257 66.000573 L 97.895591 41.853906 L 87.391973 41.855127 L 82.288827 66.002247 L 63.854313 65.999731 L 75.37602 11.813339 L 93.894459 11.812742 L 88.852984 35.374468 L 99.26749 35.375907 L 104.308964 11.814181 L 122.890119 11.813842 Z M 155.740573 10.960158 C 160.644622 10.960492 164.615719 11.585014 167.659054 12.834178 C 170.702388 14.083342 173.104884 16.024077 174.86745 18.646006 C 176.004208 20.413264 176.886147 22.403955 177.51236 24.628457 C 178.139935 26.837393 178.449912 29.389747 178.452215 32.291615 C 178.447963 34.790337 178.223069 37.301124 177.762876 39.812238 C 177.303592 42.312974 176.664784 44.714354 175.845998 47.021563 C 175.027212 49.328773 174.033442 51.484739 172.868969 53.500294 C 171.699307 55.515394 170.403886 57.294678 168.972783 58.83205 C 166.303327 61.73544 163.223516 63.77164 159.722971 64.939743 C 156.222881 66.102657 151.910717 66.687385 146.786935 66.68874 C 141.840923 66.689963 137.860293 66.1744 134.849779 65.147692 C 131.834076 64.120531 129.443387 62.463154 127.681992 60.186391 C 126.429857 58.602483 125.445056 56.592336 124.723306 54.145118 C 124.016669 51.704451 123.658692 48.625075 123.658845 44.918274 C 123.661498 38.613263 124.78773 32.9712 127.036633 28.002464 C 129.286899 23.018162 132.486608 19.073691 136.64095 16.169506 C 139.137446 14.406423 141.923596 13.097395 144.993303 12.252347 C 148.074749 11.392641 151.657475 10.958452 155.740573 10.960158 Z M 146.118263 60.706656 C 147.424925 60.711181 148.657902 60.123698 149.826212 58.960681 C 150.994975 57.792475 152.067617 56.22897 153.054514 54.271075 C 154.053151 52.298522 154.965071 50.0622 155.785087 47.561653 C 156.615479 45.062015 157.317326 42.477934 157.890172 39.814601 C 158.459192 37.135249 158.895775 34.475679 159.199922 31.835892 C 159.520996 29.181901 159.679737 26.76989 159.68088 24.605504 C 159.678382 21.646108 159.380085 19.617599 158.785534 18.525165 C 158.187611 17.411523 157.321383 16.85474 156.181662 16.854364 C 154.874547 16.855027 153.627365 17.425583 152.429741 18.565123 C 151.237304 19.705117 150.11122 21.22212 149.055769 23.126963 C 148.000318 25.031806 147.056164 27.218255 146.222852 29.691497 C 145.40556 32.160912 144.696514 34.707765 144.095714 37.332055 C 143.50101 39.946422 143.044386 42.536271 142.720198 45.106338 C 142.418126 47.662655 142.264832 50.012403 142.264596 52.166413 C 142.262428 55.418181 142.615661 57.655398 143.324749 58.872873 C 144.048949 60.096899 144.978542 60.706279 146.118263 60.706656 Z M 185.775112 11.81547 L 206.609765 11.813614 L 208.065882 48.773879 L 222.315448 11.812659 L 239.212737 11.81662 L 241.422355 48.769613 L 255.754937 11.815656 L 264.710952 11.814971 L 243.64803 65.997903 L 224.444449 66.001297 L 222.648621 35.374065 L 209.857733 66.000813 L 189.379076 65.997216 Z M 271.199378 11.812758 L 289.723005 11.812614 L 279.638758 58.831389 L 296.970325 58.831518 L 295.51211 65.99732 L 259.682859 65.999604 Z M 319.248178 65.99835 L 300.808021 66.000568 L 312.329729 11.814176 L 330.848167 11.813579 Z M 374.102785 65.997992 L 354.146611 65.998282 L 344.669617 26.835779 L 336.312861 66.001271 L 328.627641 65.998115 L 340.148895 11.816911 L 360.539347 11.812791 L 369.499895 51.499987 L 377.938819 11.813633 L 385.791433 11.815749 Z M 395.097803 11.814348 L 431.015713 11.814592 L 429.65938 18.293953 L 412.244343 18.291749 L 408.659009 34.771144 L 423.26129 34.77299 L 421.886277 41.167065 L 407.30475 41.167035 L 403.369471 59.435236 L 420.784508 59.43744 L 419.494005 66.000984 L 383.576095 66.000739 Z M 395.097803 11.814348 " stroke="#000000" stroke-width="6.399998" stroke-opacity="1" stroke-miterlimit="4"/><g fill="#000000" fill-opacity="1"><g transform="translate(27.63505, 197.914963)"><g><path d="M 22.609375 -30.953125 C 22.679688 -31.609375 22.664062 -32.484375 22.5625 -33.578125 C 22.507812 -34.222656 22.414062 -34.847656 22.28125 -35.453125 C 22.144531 -36.054688 21.945312 -36.59375 21.6875 -37.0625 C 21.425781 -37.539062 21.070312 -37.898438 20.625 -38.140625 C 20.175781 -38.378906 19.613281 -38.46875 18.9375 -38.40625 C 18.175781 -38.332031 17.488281 -38.097656 16.875 -37.703125 C 16.269531 -37.304688 15.742188 -36.820312 15.296875 -36.25 C 14.847656 -35.675781 14.515625 -35.023438 14.296875 -34.296875 C 14.085938 -33.578125 14.019531 -32.835938 14.09375 -32.078125 C 14.1875 -30.972656 14.546875 -30.144531 15.171875 -29.59375 C 15.796875 -29.050781 16.59375 -28.628906 17.5625 -28.328125 C 18.53125 -28.023438 19.617188 -27.796875 20.828125 -27.640625 C 22.046875 -27.492188 23.304688 -27.304688 24.609375 -27.078125 C 25.703125 -26.878906 26.800781 -26.585938 27.90625 -26.203125 C 29.007812 -25.828125 30.007812 -25.285156 30.90625 -24.578125 C 31.800781 -23.867188 32.554688 -22.90625 33.171875 -21.6875 C 33.796875 -20.476562 34.191406 -18.941406 34.359375 -17.078125 C 34.585938 -14.398438 34.25 -12.097656 33.34375 -10.171875 C 32.445312 -8.253906 31.109375 -6.640625 29.328125 -5.328125 C 27.554688 -4.023438 25.410156 -3.003906 22.890625 -2.265625 C 20.367188 -1.523438 17.597656 -1.019531 14.578125 -0.75 C 11.523438 -0.488281 9.007812 -0.472656 7.03125 -0.703125 C 5.0625 -0.941406 3.503906 -1.25 2.359375 -1.625 C 1.003906 -2.050781 -0.03125 -2.597656 -0.75 -3.265625 L 0.6875 -12.203125 L 11.890625 -13.171875 C 11.878906 -12.785156 11.878906 -12.257812 11.890625 -11.59375 C 11.910156 -10.9375 11.9375 -10.414062 11.96875 -10.03125 C 12.007812 -9.519531 12.117188 -8.992188 12.296875 -8.453125 C 12.484375 -7.921875 12.734375 -7.429688 13.046875 -6.984375 C 13.359375 -6.546875 13.78125 -6.195312 14.3125 -5.9375 C 14.84375 -5.6875 15.492188 -5.59375 16.265625 -5.65625 C 17.117188 -5.726562 17.859375 -5.984375 18.484375 -6.421875 C 19.109375 -6.867188 19.617188 -7.398438 20.015625 -8.015625 C 20.410156 -8.628906 20.695312 -9.296875 20.875 -10.015625 C 21.050781 -10.742188 21.109375 -11.445312 21.046875 -12.125 C 20.960938 -13.050781 20.664062 -13.8125 20.15625 -14.40625 C 19.65625 -15.007812 19.003906 -15.5 18.203125 -15.875 C 17.410156 -16.25 16.492188 -16.554688 15.453125 -16.796875 C 14.421875 -17.035156 13.367188 -17.28125 12.296875 -17.53125 C 11.234375 -17.726562 10.117188 -17.988281 8.953125 -18.3125 C 7.796875 -18.644531 6.71875 -19.15625 5.71875 -19.84375 C 4.71875 -20.53125 3.851562 -21.425781 3.125 -22.53125 C 2.40625 -23.644531 1.96875 -25.113281 1.8125 -26.9375 C 1.570312 -29.65625 2.0625 -32 3.28125 -33.96875 C 4.5 -35.945312 6.109375 -37.601562 8.109375 -38.9375 C 10.117188 -40.269531 12.359375 -41.289062 14.828125 -42 C 17.296875 -42.707031 19.65625 -43.160156 21.90625 -43.359375 C 24.882812 -43.617188 27.476562 -43.488281 29.6875 -42.96875 C 31.894531 -42.457031 33.585938 -41.785156 34.765625 -40.953125 L 33.1875 -31.875 Z M 22.609375 -30.953125 "/></g></g></g><g fill="#000000" fill-opacity="1"><g transform="translate(65.057799, 194.640897)"><g><path d="M 35.375 -3.09375 L 21.625 -1.890625 L 23.859375 -20.265625 L 16.015625 -19.578125 L 13.78125 -1.203125 L 0 0 L 5.0625 -41.234375 L 18.890625 -42.453125 L 16.671875 -24.515625 L 24.46875 -25.1875 L 26.6875 -43.125 L 40.5625 -44.34375 Z M 35.375 -3.09375 "/></g></g></g><g fill="#000000" fill-opacity="1"><g transform="translate(107.517, 190.926198)"><g><path d="M 22.609375 -43.421875 C 26.265625 -43.734375 29.269531 -43.523438 31.625 -42.796875 C 33.976562 -42.066406 35.898438 -40.773438 37.390625 -38.921875 C 38.359375 -37.679688 39.144531 -36.253906 39.75 -34.640625 C 40.363281 -33.023438 40.765625 -31.132812 40.953125 -28.96875 C 41.117188 -27.101562 41.113281 -25.21875 40.9375 -23.3125 C 40.757812 -21.40625 40.4375 -19.5625 39.96875 -17.78125 C 39.507812 -16.007812 38.910156 -14.332031 38.171875 -12.75 C 37.429688 -11.164062 36.578125 -9.753906 35.609375 -8.515625 C 33.804688 -6.160156 31.632812 -4.429688 29.09375 -3.328125 C 26.5625 -2.234375 23.378906 -1.519531 19.546875 -1.1875 C 15.859375 -0.863281 12.851562 -0.988281 10.53125 -1.5625 C 8.207031 -2.132812 6.316406 -3.210938 4.859375 -4.796875 C 3.816406 -5.898438 2.945312 -7.335938 2.25 -9.109375 C 1.550781 -10.890625 1.082031 -13.164062 0.84375 -15.9375 C 0.425781 -20.644531 0.894531 -24.9375 2.25 -28.8125 C 3.613281 -32.6875 5.753906 -35.84375 8.671875 -38.28125 C 10.410156 -39.75 12.40625 -40.90625 14.65625 -41.75 C 16.90625 -42.59375 19.554688 -43.148438 22.609375 -43.421875 Z M 18.65625 -5.609375 C 19.632812 -5.703125 20.519531 -6.21875 21.3125 -7.15625 C 22.101562 -8.101562 22.804688 -9.34375 23.421875 -10.875 C 24.046875 -12.414062 24.582031 -14.144531 25.03125 -16.0625 C 25.476562 -17.988281 25.828125 -19.96875 26.078125 -22 C 26.335938 -24.03125 26.492188 -26.046875 26.546875 -28.046875 C 26.609375 -30.046875 26.570312 -31.851562 26.4375 -33.46875 C 26.238281 -35.6875 25.878906 -37.1875 25.359375 -37.96875 C 24.835938 -38.757812 24.148438 -39.113281 23.296875 -39.03125 C 22.328125 -38.945312 21.4375 -38.441406 20.625 -37.515625 C 19.8125 -36.585938 19.070312 -35.378906 18.40625 -33.890625 C 17.738281 -32.398438 17.175781 -30.703125 16.71875 -28.796875 C 16.269531 -26.898438 15.90625 -24.953125 15.625 -22.953125 C 15.34375 -20.953125 15.171875 -18.984375 15.109375 -17.046875 C 15.046875 -15.117188 15.082031 -13.347656 15.21875 -11.734375 C 15.4375 -9.304688 15.851562 -7.660156 16.46875 -6.796875 C 17.082031 -5.929688 17.8125 -5.535156 18.65625 -5.609375 Z M 18.65625 -5.609375 "/></g></g></g><g fill="#000000" fill-opacity="1"><g transform="translate(151.187498, 187.105525)"><g><path d="M 1.421875 -40.921875 L 16.984375 -42.28125 L 20.5 -14.765625 L 28.71875 -43.3125 L 41.34375 -44.40625 L 45.421875 -16.953125 L 53.703125 -45.5 L 60.390625 -46.078125 L 48.203125 -4.21875 L 33.859375 -2.96875 L 30.515625 -25.71875 L 22.953125 -2.015625 L 7.65625 -0.671875 Z M 1.421875 -40.921875 "/></g></g></g><g fill="#000000" fill-opacity="1"><g transform="translate(211.369902, 181.840246)"><g><path d="M 5.0625 -41.234375 L 18.890625 -42.453125 L 14.4375 -6.65625 L 27.390625 -7.796875 L 26.765625 -2.34375 L 0 0 Z M 5.0625 -41.234375 "/></g></g></g><g fill="#000000" fill-opacity="1"><g transform="translate(242.09864, 179.15183)"><g><path d="M 13.78125 -1.203125 L 0 0 L 5.0625 -41.234375 L 18.890625 -42.453125 Z M 13.78125 -1.203125 "/></g></g></g><g fill="#000000" fill-opacity="1"><g transform="translate(262.881967, 177.333525)"><g><path d="M 33.984375 -2.96875 L 19.0625 -1.671875 L 9.421875 -30.3125 L 5.75 -0.5 L 0 0 L 5.0625 -41.234375 L 20.296875 -42.578125 L 29.59375 -13.5 L 33.296875 -43.703125 L 39.171875 -44.21875 Z M 33.984375 -2.96875 "/></g></g></g><g fill="#000000" fill-opacity="1"><g transform="translate(303.938604, 173.741534)"><g><path d="M 5.0625 -41.234375 L 31.890625 -43.578125 L 31.3125 -38.65625 L 18.296875 -37.515625 L 16.6875 -24.96875 L 27.609375 -25.921875 L 27 -21.046875 L 16.109375 -20.09375 L 14.359375 -6.203125 L 27.375 -7.34375 L 26.828125 -2.34375 L 0 0 Z M 5.0625 -41.234375 "/></g></g></g><path stroke-linecap="butt" transform="matrix(0.747146, -0.0653668, 0.0653668, 0.747146, 13.696732, 152.503276)" fill="none" stroke-linejoin="miter" d="M 50.531448 27.520086 C 50.69546 26.661321 50.782031 25.492544 50.779874 24.023223 C 50.782134 23.160763 50.725051 22.319252 50.613359 21.504333 C 50.502121 20.684226 50.30015 19.94506 50.006992 19.292025 C 49.730761 18.624785 49.310292 18.11223 48.740395 17.753905 C 48.167125 17.374372 47.425231 17.189216 46.510432 17.187605 C 45.496143 17.187746 44.555729 17.419164 43.69483 17.877124 C 42.849498 18.336447 42.09276 18.918541 41.424164 19.628596 C 40.771587 20.334824 40.259944 21.163176 39.884501 22.108007 C 39.520797 23.038181 39.341156 24.015828 39.345578 25.040948 C 39.342092 26.515004 39.723201 27.656731 40.489359 28.460941 C 41.267255 29.250494 42.281875 29.90391 43.528485 30.415548 C 44.77983 30.932828 46.195908 31.359956 47.781002 31.707763 C 49.377834 32.040913 51.031935 32.436583 52.737663 32.899508 C 54.16775 33.286036 55.592132 33.797542 57.010353 34.439215 C 58.440313 35.06623 59.705476 35.903642 60.799744 36.961372 C 61.911394 37.99971 62.806298 39.364148 63.485363 41.044309 C 64.180447 42.720644 64.530825 44.81122 64.531307 47.315584 C 64.531671 50.896952 63.813356 53.908306 62.381096 56.355288 C 60.964855 58.798444 59.002453 60.791242 56.488703 62.333231 C 53.986691 63.860562 51.014077 64.970287 47.570406 65.667597 C 44.138928 66.34506 40.407356 66.687803 36.365767 66.68973 C 32.267104 66.686663 28.918696 66.414628 26.320544 65.873625 C 23.737957 65.333984 21.713524 64.749068 20.241602 64.123609 C 18.476009 63.388807 17.165058 62.536933 16.304013 61.562346 L 19.219046 49.876104 L 34.218832 49.87613 C 34.163515 50.388885 34.107422 51.089788 34.050553 51.97884 C 33.995046 52.852326 33.970538 53.550765 33.967561 54.062871 C 33.965622 54.742371 34.050073 55.450342 34.215725 56.18633 C 34.396942 56.92368 34.671811 57.606485 35.030409 58.228648 C 35.404572 58.852173 35.934454 59.369072 36.615321 59.773703 C 37.296642 60.173146 38.147041 60.373024 39.176895 60.374244 C 40.316616 60.374621 41.322016 60.117519 42.198285 59.603393 C 43.084931 59.090174 43.831096 58.449644 44.42595 57.686084 C 45.021712 56.912146 45.472908 56.057593 45.779084 55.127614 C 46.097 54.182978 46.261724 53.256308 46.256785 52.356621 C 46.261506 51.107487 45.961339 50.056493 45.361018 49.209281 C 44.767249 48.346958 43.952774 47.616943 42.927972 47.020147 C 41.913547 46.424258 40.729653 45.912879 39.381933 45.481275 C 38.049778 45.051033 36.677023 44.606782 35.25848 44.148069 C 33.886374 43.756157 32.438061 43.279155 30.924826 42.707593 C 29.427156 42.137392 28.053684 41.342788 26.800129 40.312947 C 25.551762 39.283561 24.509052 37.995072 23.678094 36.437555 C 22.858422 34.87057 22.448442 32.863659 22.448155 30.416823 C 22.447595 26.777927 23.37371 23.722014 25.220856 21.253819 C 27.06463 18.764417 29.399502 16.757151 32.220282 15.231568 C 35.037236 13.689965 38.11881 12.589772 41.469282 11.941819 C 44.830586 11.289585 48.017105 10.961895 51.02884 10.958748 C 55.017636 10.96266 58.44783 11.435294 61.319421 12.376652 C 64.197109 13.308087 66.370847 14.39752 67.840182 15.650139 L 64.694717 27.520122 Z M 114.347692 65.9993 L 95.928744 65.998145 L 101.036624 41.856667 L 90.53346 41.852699 L 85.430314 65.999819 L 66.995346 66.002491 L 78.511865 11.815646 L 97.035492 11.815502 L 91.994017 35.377228 L 102.408523 35.378668 L 107.449997 11.816942 L 126.031152 11.816603 Z M 158.881605 10.962918 C 163.786109 10.958064 167.756752 11.587774 170.800086 12.836939 C 173.843421 14.086103 176.246371 16.021649 178.008483 18.648766 C 179.145694 20.410836 180.02718 22.406716 180.653847 24.626029 C 181.276233 26.834511 181.590945 29.392507 181.593248 32.294376 C 181.588996 34.793097 181.359367 37.298242 180.903909 39.814998 C 180.444625 42.315735 179.805816 44.717114 178.987485 47.019135 C 178.168699 49.326345 177.174475 51.4875 176.010002 53.503054 C 174.840794 55.512966 173.540184 57.291796 172.113816 58.83481 C 169.44436 61.7382 166.365003 63.769212 162.864458 64.937315 C 159.363914 66.105417 155.05175 66.690146 149.923233 66.685858 C 144.98241 66.687535 141.00178 66.171972 137.986077 65.144811 C 134.975563 64.118103 132.58442 62.465914 130.823025 60.189151 C 129.57089 58.605243 128.586542 56.589907 127.864339 54.147879 C 127.158156 51.702023 126.799725 48.627836 126.800332 44.915846 C 126.802985 38.610835 127.928763 32.973961 130.17812 28.000036 C 132.428386 23.015734 135.628095 19.071263 139.782437 16.167078 C 142.278933 14.403995 145.064629 13.100156 148.13479 12.249919 C 151.216236 11.390213 154.798508 10.961213 158.881605 10.962918 Z M 149.259296 60.709416 C 150.566411 60.708753 151.798935 60.126459 152.967699 58.958253 C 154.136462 57.790047 155.20865 56.231731 156.195547 54.273835 C 157.194184 52.301283 158.106104 50.06496 158.92612 47.564414 C 159.756512 45.064775 160.458359 42.480695 161.031659 39.812173 C 161.600679 37.132821 162.037262 34.473251 162.341409 31.833463 C 162.662029 29.184661 162.82077 26.772651 162.821913 24.608264 C 162.819415 21.648868 162.521118 19.620359 161.927021 18.522737 C 161.328644 17.414283 160.457227 16.857047 159.322695 16.857125 C 158.01558 16.857788 156.76321 17.427889 155.571227 18.562695 C 154.378791 19.702688 153.252253 21.22488 152.197256 23.124535 C 151.141805 25.029378 150.19765 27.215827 149.364339 29.689069 C 148.541404 32.163219 147.837547 34.710525 147.236747 37.334815 C 146.642497 39.943994 146.180684 42.533389 145.861685 45.10391 C 145.559613 47.660227 145.405865 50.015164 145.405629 52.169173 C 145.403915 55.415753 145.757148 57.65297 146.465782 58.875634 C 147.189982 60.09966 148.119575 60.70904 149.259296 60.709416 Z M 188.916598 11.813042 L 209.750798 11.816375 L 211.207369 48.771451 L 225.456481 11.81542 L 242.354224 11.814192 L 244.563388 48.772373 L 258.896424 11.813228 L 267.852439 11.812543 L 246.789063 66.000664 L 227.580747 65.998415 L 225.789654 35.376826 L 212.99922 65.998385 L 192.520109 65.999977 Z M 274.340411 11.815518 L 292.864038 11.815375 L 282.779791 58.834149 L 300.111358 58.834278 L 298.653143 66.00008 L 262.823892 66.002364 Z M 322.389211 66.00111 L 303.949508 65.99814 L 315.470762 11.816937 L 333.9892 11.816339 Z M 377.243818 66.000753 L 357.287644 66.001042 L 347.805916 26.832897 L 339.454348 65.998843 L 331.768674 66.000875 L 343.285193 11.814029 L 363.68038 11.815551 L 372.640928 51.502747 L 381.079852 11.816393 L 388.93292 11.813321 Z M 398.238836 11.817108 L 434.151557 11.816899 L 432.800867 18.291525 L 415.385376 18.29451 L 411.800042 34.773904 L 426.402777 34.770562 L 425.02731 41.169826 L 410.445783 41.169795 L 406.510504 59.437997 L 423.925541 59.440201 L 422.635492 65.998556 L 386.717582 65.998311 Z M 398.238836 11.817108 " stroke="#000000" stroke-width="6.399998" stroke-opacity="1" stroke-miterlimit="4"/><g fill="#ffffff" fill-opacity="1"><g transform="translate(30.642378, 200.709803)"><g><path d="M 22.609375 -30.953125 C 22.679688 -31.609375 22.664062 -32.484375 22.5625 -33.578125 C 22.507812 -34.222656 22.414062 -34.847656 22.28125 -35.453125 C 22.144531 -36.054688 21.945312 -36.59375 21.6875 -37.0625 C 21.425781 -37.539062 21.070312 -37.898438 20.625 -38.140625 C 20.175781 -38.378906 19.613281 -38.46875 18.9375 -38.40625 C 18.175781 -38.332031 17.488281 -38.097656 16.875 -37.703125 C 16.269531 -37.304688 15.742188 -36.820312 15.296875 -36.25 C 14.847656 -35.675781 14.515625 -35.023438 14.296875 -34.296875 C 14.085938 -33.578125 14.019531 -32.835938 14.09375 -32.078125 C 14.1875 -30.972656 14.546875 -30.144531 15.171875 -29.59375 C 15.796875 -29.050781 16.59375 -28.628906 17.5625 -28.328125 C 18.53125 -28.023438 19.617188 -27.796875 20.828125 -27.640625 C 22.046875 -27.492188 23.304688 -27.304688 24.609375 -27.078125 C 25.703125 -26.878906 26.800781 -26.585938 27.90625 -26.203125 C 29.007812 -25.828125 30.007812 -25.285156 30.90625 -24.578125 C 31.800781 -23.867188 32.554688 -22.90625 33.171875 -21.6875 C 33.796875 -20.476562 34.191406 -18.941406 34.359375 -17.078125 C 34.585938 -14.398438 34.25 -12.097656 33.34375 -10.171875 C 32.445312 -8.253906 31.109375 -6.640625 29.328125 -5.328125 C 27.554688 -4.023438 25.410156 -3.003906 22.890625 -2.265625 C 20.367188 -1.523438 17.597656 -1.019531 14.578125 -0.75 C 11.523438 -0.488281 9.007812 -0.472656 7.03125 -0.703125 C 5.0625 -0.941406 3.503906 -1.25 2.359375 -1.625 C 1.003906 -2.050781 -0.03125 -2.597656 -0.75 -3.265625 L 0.6875 -12.203125 L 11.890625 -13.171875 C 11.878906 -12.785156 11.878906 -12.257812 11.890625 -11.59375 C 11.910156 -10.9375 11.9375 -10.414062 11.96875 -10.03125 C 12.007812 -9.519531 12.117188 -8.992188 12.296875 -8.453125 C 12.484375 -7.921875 12.734375 -7.429688 13.046875 -6.984375 C 13.359375 -6.546875 13.78125 -6.195312 14.3125 -5.9375 C 14.84375 -5.6875 15.492188 -5.59375 16.265625 -5.65625 C 17.117188 -5.726562 17.859375 -5.984375 18.484375 -6.421875 C 19.109375 -6.867188 19.617188 -7.398438 20.015625 -8.015625 C 20.410156 -8.628906 20.695312 -9.296875 20.875 -10.015625 C 21.050781 -10.742188 21.109375 -11.445312 21.046875 -12.125 C 20.960938 -13.050781 20.664062 -13.8125 20.15625 -14.40625 C 19.65625 -15.007812 19.003906 -15.5 18.203125 -15.875 C 17.410156 -16.25 16.492188 -16.554688 15.453125 -16.796875 C 14.421875 -17.035156 13.367188 -17.28125 12.296875 -17.53125 C 11.234375 -17.726562 10.117188 -17.988281 8.953125 -18.3125 C 7.796875 -18.644531 6.71875 -19.15625 5.71875 -19.84375 C 4.71875 -20.53125 3.851562 -21.425781 3.125 -22.53125 C 2.40625 -23.644531 1.96875 -25.113281 1.8125 -26.9375 C 1.570312 -29.65625 2.0625 -32 3.28125 -33.96875 C 4.5 -35.945312 6.109375 -37.601562 8.109375 -38.9375 C 10.117188 -40.269531 12.359375 -41.289062 14.828125 -42 C 17.296875 -42.707031 19.65625 -43.160156 21.90625 -43.359375 C 24.882812 -43.617188 27.476562 -43.488281 29.6875 -42.96875 C 31.894531 -42.457031 33.585938 -41.785156 34.765625 -40.953125 L 33.1875 -31.875 Z M 22.609375 -30.953125 "/></g></g></g><g fill="#ffffff" fill-opacity="1"><g transform="translate(68.065127, 197.435736)"><g><path d="M 35.375 -3.09375 L 21.625 -1.890625 L 23.859375 -20.265625 L 16.015625 -19.578125 L 13.78125 -1.203125 L 0 0 L 5.0625 -41.234375 L 18.890625 -42.453125 L 16.671875 -24.515625 L 24.46875 -25.1875 L 26.6875 -43.125 L 40.5625 -44.34375 Z M 35.375 -3.09375 "/></g></g></g><g fill="#ffffff" fill-opacity="1"><g transform="translate(110.524328, 193.721037)"><g><path d="M 22.609375 -43.421875 C 26.265625 -43.734375 29.269531 -43.523438 31.625 -42.796875 C 33.976562 -42.066406 35.898438 -40.773438 37.390625 -38.921875 C 38.359375 -37.679688 39.144531 -36.253906 39.75 -34.640625 C 40.363281 -33.023438 40.765625 -31.132812 40.953125 -28.96875 C 41.117188 -27.101562 41.113281 -25.21875 40.9375 -23.3125 C 40.757812 -21.40625 40.4375 -19.5625 39.96875 -17.78125 C 39.507812 -16.007812 38.910156 -14.332031 38.171875 -12.75 C 37.429688 -11.164062 36.578125 -9.753906 35.609375 -8.515625 C 33.804688 -6.160156 31.632812 -4.429688 29.09375 -3.328125 C 26.5625 -2.234375 23.378906 -1.519531 19.546875 -1.1875 C 15.859375 -0.863281 12.851562 -0.988281 10.53125 -1.5625 C 8.207031 -2.132812 6.316406 -3.210938 4.859375 -4.796875 C 3.816406 -5.898438 2.945312 -7.335938 2.25 -9.109375 C 1.550781 -10.890625 1.082031 -13.164062 0.84375 -15.9375 C 0.425781 -20.644531 0.894531 -24.9375 2.25 -28.8125 C 3.613281 -32.6875 5.753906 -35.84375 8.671875 -38.28125 C 10.410156 -39.75 12.40625 -40.90625 14.65625 -41.75 C 16.90625 -42.59375 19.554688 -43.148438 22.609375 -43.421875 Z M 18.65625 -5.609375 C 19.632812 -5.703125 20.519531 -6.21875 21.3125 -7.15625 C 22.101562 -8.101562 22.804688 -9.34375 23.421875 -10.875 C 24.046875 -12.414062 24.582031 -14.144531 25.03125 -16.0625 C 25.476562 -17.988281 25.828125 -19.96875 26.078125 -22 C 26.335938 -24.03125 26.492188 -26.046875 26.546875 -28.046875 C 26.609375 -30.046875 26.570312 -31.851562 26.4375 -33.46875 C 26.238281 -35.6875 25.878906 -37.1875 25.359375 -37.96875 C 24.835938 -38.757812 24.148438 -39.113281 23.296875 -39.03125 C 22.328125 -38.945312 21.4375 -38.441406 20.625 -37.515625 C 19.8125 -36.585938 19.070312 -35.378906 18.40625 -33.890625 C 17.738281 -32.398438 17.175781 -30.703125 16.71875 -28.796875 C 16.269531 -26.898438 15.90625 -24.953125 15.625 -22.953125 C 15.34375 -20.953125 15.171875 -18.984375 15.109375 -17.046875 C 15.046875 -15.117188 15.082031 -13.347656 15.21875 -11.734375 C 15.4375 -9.304688 15.851562 -7.660156 16.46875 -6.796875 C 17.082031 -5.929688 17.8125 -5.535156 18.65625 -5.609375 Z M 18.65625 -5.609375 "/></g></g></g><g fill="#ffffff" fill-opacity="1"><g transform="translate(154.194825, 189.900364)"><g><path d="M 1.421875 -40.921875 L 16.984375 -42.28125 L 20.5 -14.765625 L 28.71875 -43.3125 L 41.34375 -44.40625 L 45.421875 -16.953125 L 53.703125 -45.5 L 60.390625 -46.078125 L 48.203125 -4.21875 L 33.859375 -2.96875 L 30.515625 -25.71875 L 22.953125 -2.015625 L 7.65625 -0.671875 Z M 1.421875 -40.921875 "/></g></g></g><g fill="#ffffff" fill-opacity="1"><g transform="translate(214.377229, 184.635086)"><g><path d="M 5.0625 -41.234375 L 18.890625 -42.453125 L 14.4375 -6.65625 L 27.390625 -7.796875 L 26.765625 -2.34375 L 0 0 Z M 5.0625 -41.234375 "/></g></g></g><g fill="#ffffff" fill-opacity="1"><g transform="translate(245.105967, 181.946669)"><g><path d="M 13.78125 -1.203125 L 0 0 L 5.0625 -41.234375 L 18.890625 -42.453125 Z M 13.78125 -1.203125 "/></g></g></g><g fill="#ffffff" fill-opacity="1"><g transform="translate(265.889294, 180.128364)"><g><path d="M 33.984375 -2.96875 L 19.0625 -1.671875 L 9.421875 -30.3125 L 5.75 -0.5 L 0 0 L 5.0625 -41.234375 L 20.296875 -42.578125 L 29.59375 -13.5 L 33.296875 -43.703125 L 39.171875 -44.21875 Z M 33.984375 -2.96875 "/></g></g></g><g fill="#ffffff" fill-opacity="1"><g transform="translate(306.945932, 176.536373)"><g><path d="M 5.0625 -41.234375 L 31.890625 -43.578125 L 31.3125 -38.65625 L 18.296875 -37.515625 L 16.6875 -24.96875 L 27.609375 -25.921875 L 27 -21.046875 L 16.109375 -20.09375 L 14.359375 -6.203125 L 27.375 -7.34375 L 26.828125 -2.34375 L 0 0 Z M 5.0625 -41.234375 "/></g></g></g><g clip-path="url(#f5a003c4ae)"><g clip-path="url(#51c437b325)"><g clip-path="url(#5c5993f41d)"><path fill="#ff3131" d="M 257.335938 120.410156 C 257.785156 121.988281 258.242188 123.554688 258.691406 125.121094 C 258.835938 125.632812 258.253906 125.980469 257.808594 125.644531 C 256.53125 124.695312 255.351562 123.640625 254.234375 122.53125 C 252.875 123.527344 251.570312 124.582031 250.3125 125.683594 C 249.761719 126.175781 248.855469 125.40625 249.410156 124.917969 C 249.746094 123.988281 250.222656 123.089844 250.640625 122.203125 C 251 121.429688 251.367188 120.671875 251.738281 119.898438 C 250.757812 118.792969 249.792969 117.660156 248.8125 116.53125 C 248.566406 116.238281 248.835938 115.722656 249.234375 115.738281 C 250.632812 115.804688 252.015625 115.894531 253.410156 115.980469 C 253.898438 114.972656 254.367188 113.957031 254.742188 112.910156 C 254.863281 112.546875 255.488281 112.414062 255.628906 112.882812 C 255.949219 113.972656 256.207031 115.082031 256.429688 116.199219 C 258.238281 116.332031 260.046875 116.472656 261.851562 116.628906 C 262.347656 116.664062 262.75 117.324219 262.207031 117.609375 C 260.53125 118.460938 258.90625 119.402344 257.335938 120.410156 Z M 257.335938 120.410156 " fill-opacity="1" fill-rule="nonzero"/></g></g></g><path stroke-linecap="butt" transform="matrix(0.749543, -0.0261746, 0.0261746, 0.749543, 90.59534, 193.454709)" fill="none" stroke-linejoin="miter" d="M 71.343621 2.979142 C 71.344216 3.260585 71.286463 3.571258 71.175387 3.916551 C 71.122542 4.086685 71.13434 4.196539 71.215805 4.251499 C 71.302475 4.30664 71.542094 4.309796 71.945436 4.25092 C 72.18185 4.196638 72.397443 4.141628 72.592215 4.085892 C 72.786987 4.030155 72.882679 3.976171 72.884679 3.918914 C 72.93873 3.863475 72.8957 3.75253 72.760796 3.586263 C 72.621232 3.404198 72.433548 3.256933 72.197565 3.149674 C 71.863839 2.856598 71.655699 2.698196 71.573325 2.669262 C 71.490952 2.640328 71.414262 2.747091 71.343621 2.979142 Z M 67.177227 16.628511 C 66.828745 17.653432 66.328934 19.131681 65.677793 21.063258 C 65.021447 22.994653 64.323575 25.070521 63.573767 27.290497 C 62.834188 29.516042 62.157682 31.577021 61.528452 33.478094 C 60.904245 35.384554 60.426709 36.821889 60.090637 37.789917 C 59.177503 40.806762 58.302556 43.923959 57.465616 47.146713 C 56.650041 50.354579 55.968297 53.311755 55.425588 56.018422 C 54.898859 58.715224 54.573759 60.861436 54.445084 62.456875 C 54.394023 63.471336 54.377598 64.090932 54.4064 64.310821 C 54.434657 64.546326 54.592133 64.8124 54.884217 65.104022 C 54.998301 65.269562 55.121341 65.477108 55.258542 65.72684 C 55.410814 65.992733 55.516966 66.236169 55.571794 66.456967 C 55.628671 66.917566 55.454273 67.58376 55.053806 68.455732 C 54.647407 69.348343 54.222616 70.021428 53.779252 70.480192 C 53.376868 70.8101 52.85265 71.047158 52.196371 71.185797 C 51.544751 71.340233 50.961591 71.32508 50.44671 71.145544 C 49.93467 71.033856 49.435289 70.708938 48.948747 70.165585 C 48.462205 69.622232 48.080312 69.0669 47.803067 68.499587 C 47.509 67.817033 47.266886 66.542182 47.071882 64.664441 C 46.876697 62.791905 46.725038 60.71764 46.611879 58.436259 C 46.556573 54.796695 46.630652 51.630685 46.823706 48.937866 C 47.017305 46.229431 47.398538 43.371203 47.967768 40.352771 C 48.535594 37.673039 49.136336 35.244608 49.759765 33.061911 C 50.383559 30.868804 51.238577 28.173043 52.324638 24.979834 C 52.781833 23.677288 53.17541 22.554923 53.510027 21.628537 C 53.855782 20.681693 54.029569 20.182246 54.031568 20.124989 C 53.974741 19.961448 53.803698 19.934629 53.508028 20.044168 C 51.924668 20.614257 50.22534 21.221988 48.404475 21.877591 C 46.588998 22.528169 45.363405 23.00131 44.73829 23.292171 C 44.16759 23.517183 43.328518 23.816207 42.221075 24.189243 C 41.10879 24.551687 39.954681 24.917883 38.758569 25.293034 C 37.568206 25.652752 36.48897 25.964235 35.531088 26.233053 C 34.558318 26.480504 33.901493 26.634759 33.550384 26.690247 C 32.415229 26.812163 31.447499 26.616813 30.657603 26.104559 C 29.852093 25.591759 29.39346 24.846133 29.281343 23.878088 C 29.168631 22.628602 29.586233 21.564403 30.533969 20.690696 C 31.46143 19.800647 33.381027 18.705514 36.282533 17.39973 C 36.959881 17.105481 38.017636 16.66296 39.445568 16.066598 C 40.863272 15.464666 42.454201 14.827092 44.218536 14.14867 C 45.983052 13.465043 47.747387 12.78662 49.511722 12.108198 C 51.276238 11.424571 52.807365 10.85787 54.115877 10.398047 L 58.717123 8.771179 L 59.841702 6.56429 C 60.118931 5.938167 60.456325 5.230761 60.843473 4.441709 C 61.246964 3.632381 61.566924 2.976481 61.8039 2.458394 C 62.757733 0.365407 63.687954 -1.499098 64.594197 -3.124711 C 65.510851 -4.74996 66.17037 -5.727539 66.572753 -6.057447 C 68.558828 -7.713101 70.267096 -7.830638 71.697738 -6.415264 C 72.029464 -6.064931 72.266588 -5.691845 72.403723 -5.290982 C 72.556837 -4.899983 72.743893 -4.137783 72.969912 -2.998993 C 73.260988 -1.633836 73.55831 -0.596786 73.861333 0.127772 C 74.180516 0.837261 74.712021 1.585432 75.445254 2.377129 C 75.737338 2.66875 75.955889 2.827516 76.090314 2.858268 C 76.230126 2.883996 76.501522 2.872627 76.904864 2.813751 C 77.180258 2.687869 77.918251 2.447853 79.114 2.083112 C 80.309931 1.713166 81.621285 1.321193 83.052903 0.917785 C 85.385327 0.238355 87.17344 -0.225565 88.427834 -0.478817 C 89.677387 -0.742661 90.628725 -0.824092 91.276825 -0.728499 C 91.930494 -0.643134 92.568482 -0.407184 93.195993 -0.0204648 C 94.281789 0.674102 94.73097 1.690397 94.548921 3.023398 C 94.382488 4.356943 93.702148 5.333795 92.507721 5.959158 C 92.34418 6.015985 91.68947 6.258909 90.548796 6.688111 C 89.413145 7.122701 88.003373 7.646736 86.319115 8.270628 C 84.639881 8.899907 82.877 9.536688 81.03011 10.191381 C 79.183401 10.840869 77.404724 11.48231 75.69444 12.105293 C 74.793633 12.381315 73.786178 12.726574 72.677826 13.125637 C 71.564087 13.529722 70.697535 13.869479 70.072783 14.149929 L 67.75809 14.918574 Z M 109.929455 39.248905 C 110.096186 39.697706 110.13786 40.444407 110.054115 41.499418 C 109.970369 42.55443 109.783975 43.564165 109.489908 44.523237 C 109.090812 45.952888 107.864988 47.775801 105.822483 50.00275 C 103.780705 52.208879 101.247824 54.449973 98.218453 56.731055 C 92.65288 61.049867 88.04661 62.671349 84.40969 61.606273 C 81.851015 60.855061 80.006571 59.201141 78.865947 56.644151 C 78.518259 55.855495 78.304269 55.118411 78.223795 54.438105 C 78.138662 53.742002 78.095798 52.432416 78.095567 50.498939 C 78.094146 48.002577 78.324165 45.743603 78.78526 43.732428 C 79.226261 41.699706 80.021957 39.210334 81.157096 36.253356 C 85.661015 24.877569 91.318382 16.288526 98.139787 10.481385 C 99.73516 9.119567 101.104399 8.114657 102.242478 7.461269 C 103.380558 6.807881 104.62897 6.278211 105.992739 5.877645 C 109.241156 5.08428 111.178351 6.02225 111.804325 8.691555 C 111.969106 9.49467 111.810968 10.73991 111.32507 12.416682 C 110.839536 14.083044 110.109838 15.876379 109.136159 17.791481 C 108.178458 19.696719 107.100379 21.467465 105.907124 23.103901 C 105.0044 24.479484 104.33847 25.342186 103.909515 25.686801 C 103.475719 26.020823 103.035032 26.104453 102.577044 25.937326 C 102.006723 25.703738 101.789214 25.216683 101.929538 24.481549 C 102.080273 23.746779 102.670142 22.375905 103.698963 20.374133 C 104.378344 19.126249 105.006582 17.850522 105.573449 16.541383 C 106.14534 15.237631 106.608219 14.070783 106.972498 13.041202 C 107.347005 12.01719 107.532359 11.335743 107.533581 11.00225 C 107.531962 10.600907 107.288592 10.555928 106.803107 10.877722 C 106.318168 11.183901 105.475692 11.878881 104.281066 12.957638 C 102.461739 14.613903 100.605165 16.889038 98.700571 19.793087 C 96.795978 22.697137 95.019382 25.965251 93.365214 29.607657 C 92.396972 31.814793 91.512375 34.014428 90.721835 36.206924 C 89.931113 38.404626 89.303453 40.409984 88.843878 42.228386 C 88.389509 44.04697 88.157342 45.472027 88.157969 46.498716 L 88.158168 47.686947 L 89.26381 46.917773 C 89.553068 46.693356 90.109855 46.269822 90.928966 45.646987 C 91.763874 45.019493 92.573483 44.370269 93.368567 43.689269 C 95.591055 41.979332 97.382407 40.676473 98.742987 39.770279 C 100.10393 38.853675 101.282924 38.222562 102.285173 37.877121 C 103.282399 37.526294 104.325497 37.354259 105.409443 37.355631 C 106.535212 37.353251 107.503669 37.527781 108.325407 37.874379 C 109.157555 38.22134 109.693852 38.683046 109.929455 39.248905 Z M 135.693613 38.397543 C 136.77351 38.21637 138.240225 38.001802 140.088735 37.748451 C 141.937608 37.48469 143.906927 37.204289 146.00226 36.89702 C 148.113572 36.579886 150.150377 36.307053 152.107286 36.083545 C 154.07981 35.860583 155.747164 35.720771 157.109164 35.669314 C 158.466687 35.596855 159.293398 35.651782 159.589299 35.834095 C 161.406098 37.085763 162.301452 38.607521 162.275542 40.394163 C 162.244244 42.185829 161.293402 43.596213 159.423014 44.625314 C 159.295909 44.683413 158.554529 44.871196 157.193668 45.188479 C 155.827966 45.49517 154.163207 45.859168 152.193822 46.2907 C 150.235393 46.70698 148.182907 47.130399 146.046775 47.56132 C 143.921054 47.992605 141.978785 48.393815 140.214582 48.769974 C 138.450925 49.130518 137.16996 49.398476 136.377255 49.56362 C 132.339587 50.423231 129.492943 51.053435 127.83714 51.459438 C 126.187087 51.850006 125.301896 52.126574 125.191976 52.289504 C 125.137743 52.350148 125.018438 52.632615 124.838901 53.147496 C 124.669956 53.657535 124.47801 54.22931 124.253014 54.852045 C 123.908945 56.0491 123.423361 57.418404 122.796263 58.959958 C 122.16971 60.485896 121.59007 61.862339 121.047114 63.083717 C 120.519773 64.305641 120.107689 65.062554 119.816068 65.354638 C 119.414345 65.814857 118.900356 66.057483 118.274101 66.082517 C 117.652869 66.112939 117.143557 65.923173 116.756392 65.51879 C 115.950104 64.729754 115.915536 63.331862 116.652322 61.335526 C 117.054491 60.265577 117.42186 59.147508 117.754429 57.981321 C 118.102795 56.810474 118.361516 55.818899 118.52557 55.00121 C 118.705784 54.16845 118.71512 53.751855 118.548373 53.751244 C 118.423268 53.752087 117.914913 53.833353 117.028334 54.000431 C 116.152165 54.167871 115.180122 54.394502 114.112023 54.685528 C 113.025466 54.90816 111.803212 55.136477 110.445078 55.375683 C 109.066669 55.598546 107.983021 55.737895 107.194133 55.793731 C 105.941441 55.849005 105.060315 55.859927 104.545367 55.831522 C 104.035625 55.803298 103.462396 55.652993 102.841479 55.375946 C 101.243643 54.569691 100.319769 53.416955 100.069855 51.917736 C 99.804871 50.402357 100.30032 49.049032 101.545973 47.852192 C 102.758214 46.716723 104.541204 45.653301 106.899969 44.667312 C 109.248868 43.665343 112.07337 42.773791 115.379043 41.982425 C 117.366952 41.468155 118.74204 41.041927 119.504125 40.708946 C 120.282371 40.360894 121.041498 39.814138 121.776484 39.063289 C 122.121611 38.731382 122.423527 38.293735 122.671821 37.749986 C 122.935731 37.206782 123.273984 36.176292 123.692149 34.648289 C 124.121269 33.105033 124.767767 30.709469 125.631642 27.461598 C 127.155697 21.724834 128.460673 17.038355 129.546751 13.396957 C 130.627987 9.744967 131.581606 6.911938 132.402402 4.89769 C 133.234154 2.86819 133.991133 1.487517 134.673522 0.750466 C 135.296472 0.073878 135.96075 -0.293788 136.67156 -0.35235 C 137.376983 -0.405889 137.992514 -0.123819 138.502174 0.503726 C 139.076476 1.070989 139.359406 1.774 139.356348 2.607734 C 139.359042 3.426035 139.072642 4.911737 138.502354 7.065021 C 138.336615 7.632499 138.051505 8.633575 137.652409 10.063226 C 137.248472 11.482285 136.77462 13.112574 136.235878 14.959481 C 135.707545 16.806751 135.15712 18.68973 134.589989 20.603395 C 134.018016 22.506468 133.476976 24.26991 132.961483 25.898745 C 132.451923 27.506942 132.047143 28.800895 131.752712 29.770377 C 131.588791 30.285803 131.958423 30.147577 132.856405 29.355517 C 133.775752 28.548569 135.714203 26.615042 138.672123 23.544526 C 140.492062 21.721514 142.122368 20.105551 143.568428 18.691615 C 145.025626 17.257222 145.901877 16.49046 146.192524 16.375534 C 146.708149 16.086061 147.057324 15.936698 147.255302 15.9384 C 147.448075 15.93992 147.745248 16.085797 148.152027 16.376212 C 148.941923 16.888466 149.298269 17.578405 149.210839 18.440463 C 149.129159 19.287086 148.572769 20.445457 147.546873 21.915758 C 146.863328 22.835171 145.926779 23.985479 144.731657 25.376909 C 143.536717 26.763134 142.198148 28.232939 140.711289 29.770526 C 139.24041 31.298249 137.787691 32.753645 136.358701 34.126485 C 134.940484 35.489279 133.692716 36.597449 132.609828 37.461225 C 132.163803 37.846935 131.766261 38.187435 131.422588 38.477701 C 131.089689 38.757921 130.949266 38.898939 131.006704 38.895734 C 131.062143 38.949785 131.537267 38.924684 132.442668 38.815591 C 133.35866 38.701656 134.442309 38.562306 135.693613 38.397543 Z M 175.957036 22.00106 C 176.306129 20.809393 176.587307 19.771698 176.810617 18.898752 C 177.044882 18.010553 177.139682 17.534405 177.079038 17.480172 C 177.023599 17.426121 176.48365 17.516707 175.453987 17.751749 C 174.430074 17.971357 173.247461 18.258384 171.916741 18.607989 C 170.581543 18.936592 169.428707 19.266351 168.458598 19.586856 C 167.483828 19.891565 166.998046 20.072638 166.996228 20.12469 C 166.999434 20.182128 167.201824 20.355964 167.603398 20.646197 C 168.005335 20.92602 168.463439 21.239074 168.977709 21.585357 C 169.534165 21.91748 170.17977 22.383003 170.914524 22.981927 C 171.665075 23.576191 172.296089 24.161069 172.812953 24.731539 C 173.326612 25.244569 173.759714 25.676614 174.122853 26.022832 C 174.496947 26.353797 174.683903 26.521883 174.683903 26.521883 C 174.74116 26.523882 174.891944 26.08617 175.146667 25.209108 C 175.406958 24.321818 175.678816 23.25253 175.957036 22.00106 Z M 172.896021 28.91928 C 172.324098 27.836161 171.403611 26.735657 170.123786 25.627817 C 168.844142 24.514772 167.490107 23.591955 166.06186 22.85416 C 164.701281 22.118729 163.762733 21.684668 163.246579 21.541567 C 162.735994 21.388238 161.907828 21.374952 160.767287 21.501892 C 158.561554 21.836575 156.684508 21.265511 155.146375 19.794268 C 154.11724 18.820258 153.506881 17.793123 153.310275 16.707475 C 153.118692 15.627214 153.359981 14.687146 154.038981 13.897862 C 154.665931 13.10676 156.018215 12.288873 158.101221 11.439176 C 160.174181 10.578705 162.726379 9.724547 165.768225 8.877064 C 168.810617 8.013967 172.136748 7.233738 175.747163 6.520764 C 179.357396 5.812995 183.04655 5.233058 186.8096 4.775566 C 190.67373 4.259066 193.839029 3.905776 196.310886 3.710674 C 198.783287 3.499956 200.774931 3.475699 202.291384 3.627673 C 203.803177 3.76385 205.011188 4.092668 205.915597 4.608921 C 206.831143 5.104716 207.655773 5.816221 208.395054 6.733205 C 209.530638 8.091372 209.816327 9.461552 209.247279 10.833153 C 208.95764 11.516169 208.414833 11.987096 207.62388 12.251319 C 206.828267 12.499746 205.524184 12.683513 203.70679 12.792028 C 202.678101 12.849912 201.09294 13.023864 198.956511 13.314063 C 196.830855 13.594216 194.572889 13.932287 192.187637 14.333663 C 189.797543 14.724446 187.693914 15.120021 185.871546 15.520207 L 182.874679 16.124319 L 182.290759 18.66799 C 182.110065 19.365234 181.777612 20.677348 181.288195 22.604149 C 180.819416 24.536883 180.323703 26.494734 179.811465 28.478065 C 179.24202 30.756455 178.796722 32.76297 178.47539 34.502816 C 178.169855 36.238001 178.018195 37.446987 178.020591 38.124566 C 178.017831 39.099022 177.888198 40.42343 177.621099 42.102631 C 177.374638 43.787765 177.044829 45.621121 176.642081 47.603065 C 176.239152 49.590213 175.81147 51.540017 175.353646 53.457499 C 174.906779 55.359729 174.483707 57.028272 174.079406 58.457741 C 173.691084 59.877345 173.354467 60.860988 173.058781 61.418717 C 172.602809 62.387769 171.98979 62.929205 171.224928 63.043206 C 170.465454 63.152184 169.679062 62.83809 168.87598 62.106492 C 168.428171 61.647876 168.117943 60.980392 167.934887 60.103678 C 167.767446 59.227509 167.798363 57.894443 168.017228 56.104115 C 168.257459 54.2989 168.740664 51.803826 169.47707 48.624465 C 170.213477 45.445103 171.207878 41.294987 172.45525 36.168731 L 173.829562 30.54139 Z M 172.896021 28.91928 " stroke="#000000" stroke-width="6.400005" stroke-opacity="1" stroke-miterlimit="4"/><g fill="#ff3131" fill-opacity="1"><g transform="translate(122.71245, 238.111041)"><g><path d="M 21.4375 -44.28125 C 21.445312 -44.070312 21.410156 -43.835938 21.328125 -43.578125 C 21.296875 -43.453125 21.3125 -43.367188 21.375 -43.328125 C 21.4375 -43.285156 21.617188 -43.289062 21.921875 -43.34375 C 22.097656 -43.394531 22.257812 -43.441406 22.40625 -43.484375 C 22.550781 -43.535156 22.617188 -43.582031 22.609375 -43.625 C 22.648438 -43.664062 22.613281 -43.75 22.5 -43.875 C 22.394531 -44 22.253906 -44.101562 22.078125 -44.1875 C 21.816406 -44.394531 21.65625 -44.503906 21.59375 -44.515625 C 21.53125 -44.535156 21.476562 -44.457031 21.4375 -44.28125 Z M 18.671875 -33.953125 C 18.429688 -33.171875 18.09375 -32.046875 17.65625 -30.578125 C 17.21875 -29.117188 16.75 -27.546875 16.25 -25.859375 C 15.75 -24.171875 15.289062 -22.601562 14.875 -21.15625 C 14.457031 -19.71875 14.132812 -18.628906 13.90625 -17.890625 C 13.300781 -15.609375 12.734375 -13.253906 12.203125 -10.828125 C 11.671875 -8.398438 11.238281 -6.164062 10.90625 -4.125 C 10.570312 -2.082031 10.378906 -0.460938 10.328125 0.734375 C 10.316406 1.492188 10.320312 1.957031 10.34375 2.125 C 10.375 2.300781 10.503906 2.492188 10.734375 2.703125 C 10.816406 2.828125 10.914062 2.984375 11.03125 3.171875 C 11.15625 3.359375 11.238281 3.535156 11.28125 3.703125 C 11.332031 4.046875 11.21875 4.550781 10.9375 5.21875 C 10.664062 5.894531 10.367188 6.410156 10.046875 6.765625 C 9.753906 7.023438 9.363281 7.21875 8.875 7.34375 C 8.382812 7.46875 7.945312 7.472656 7.5625 7.359375 C 7.175781 7.285156 6.789062 7.050781 6.40625 6.65625 C 6.03125 6.257812 5.734375 5.851562 5.515625 5.4375 C 5.273438 4.9375 5.054688 3.984375 4.859375 2.578125 C 4.660156 1.179688 4.492188 -0.367188 4.359375 -2.078125 C 4.222656 -4.804688 4.191406 -7.1875 4.265625 -9.21875 C 4.335938 -11.25 4.546875 -13.394531 4.890625 -15.65625 C 5.253906 -17.6875 5.640625 -19.53125 6.046875 -21.1875 C 6.460938 -22.84375 7.035156 -24.878906 7.765625 -27.296875 C 8.066406 -28.296875 8.332031 -29.148438 8.5625 -29.859375 C 8.800781 -30.566406 8.921875 -30.941406 8.921875 -30.984375 C 8.867188 -31.109375 8.734375 -31.125 8.515625 -31.03125 C 7.347656 -30.5625 6.085938 -30.054688 4.734375 -29.515625 C 3.390625 -28.984375 2.488281 -28.601562 2.03125 -28.375 C 1.601562 -28.1875 0.976562 -27.941406 0.15625 -27.640625 C -0.664062 -27.335938 -1.519531 -27.03125 -2.40625 -26.71875 C -3.289062 -26.414062 -4.09375 -26.15625 -4.8125 -25.9375 C -5.53125 -25.71875 -6.015625 -25.582031 -6.265625 -25.53125 C -7.117188 -25.40625 -7.851562 -25.523438 -8.46875 -25.890625 C -9.082031 -26.253906 -9.441406 -26.800781 -9.546875 -27.53125 C -9.660156 -28.46875 -9.378906 -29.273438 -8.703125 -29.953125 C -8.023438 -30.640625 -6.613281 -31.515625 -4.46875 -32.578125 C -3.96875 -32.804688 -3.191406 -33.160156 -2.140625 -33.640625 C -1.085938 -34.128906 0.0859375 -34.648438 1.390625 -35.203125 C 2.703125 -35.765625 4.007812 -36.320312 5.3125 -36.875 C 6.613281 -37.4375 7.75 -37.90625 8.71875 -38.28125 L 12.125 -39.609375 L 12.90625 -41.296875 C 13.09375 -41.773438 13.320312 -42.316406 13.59375 -42.921875 C 13.875 -43.535156 14.097656 -44.035156 14.265625 -44.421875 C 14.929688 -46.023438 15.582031 -47.445312 16.21875 -48.6875 C 16.863281 -49.925781 17.332031 -50.675781 17.625 -50.9375 C 19.070312 -52.226562 20.347656 -52.363281 21.453125 -51.34375 C 21.710938 -51.09375 21.898438 -50.816406 22.015625 -50.515625 C 22.140625 -50.222656 22.300781 -49.65625 22.5 -48.8125 C 22.75 -47.800781 23 -47.03125 23.25 -46.5 C 23.507812 -45.96875 23.925781 -45.414062 24.5 -44.84375 C 24.726562 -44.632812 24.894531 -44.519531 25 -44.5 C 25.101562 -44.488281 25.304688 -44.507812 25.609375 -44.5625 C 25.804688 -44.65625 26.347656 -44.851562 27.234375 -45.15625 C 28.117188 -45.46875 29.09375 -45.796875 30.15625 -46.140625 C 31.894531 -46.710938 33.226562 -47.109375 34.15625 -47.328125 C 35.082031 -47.554688 35.789062 -47.644531 36.28125 -47.59375 C 36.769531 -47.539062 37.253906 -47.378906 37.734375 -47.109375 C 38.566406 -46.617188 38.929688 -45.867188 38.828125 -44.859375 C 38.734375 -43.859375 38.25 -43.109375 37.375 -42.609375 C 37.25 -42.554688 36.765625 -42.351562 35.921875 -42 C 35.085938 -41.65625 34.046875 -41.222656 32.796875 -40.703125 C 31.554688 -40.191406 30.253906 -39.671875 28.890625 -39.140625 C 27.523438 -38.609375 26.207031 -38.085938 24.9375 -37.578125 C 24.269531 -37.335938 23.523438 -37.050781 22.703125 -36.71875 C 21.878906 -36.394531 21.238281 -36.117188 20.78125 -35.890625 L 19.0625 -35.25 Z M 18.671875 -33.953125 "/></g></g></g><g fill="#ff3131" fill-opacity="1"><g transform="translate(154.179534, 237.012186)"><g><path d="M 19.84375 -17.015625 C 19.976562 -16.679688 20.023438 -16.117188 19.984375 -15.328125 C 19.953125 -14.535156 19.835938 -13.78125 19.640625 -13.0625 C 19.378906 -11.976562 18.507812 -10.578125 17.03125 -8.859375 C 15.5625 -7.148438 13.726562 -5.398438 11.53125 -3.609375 C 7.46875 -0.222656 4.054688 1.113281 1.296875 0.40625 C -0.640625 -0.0820312 -2.066406 -1.273438 -2.984375 -3.171875 C -3.265625 -3.753906 -3.445312 -4.300781 -3.53125 -4.8125 C -3.613281 -5.320312 -3.679688 -6.300781 -3.734375 -7.75 C -3.796875 -9.625 -3.679688 -11.320312 -3.390625 -12.84375 C -3.109375 -14.375 -2.578125 -16.257812 -1.796875 -18.5 C 1.273438 -27.15625 5.289062 -33.75 10.25 -38.28125 C 11.40625 -39.332031 12.398438 -40.117188 13.234375 -40.640625 C 14.078125 -41.160156 15.003906 -41.585938 16.015625 -41.921875 C 18.429688 -42.597656 19.90625 -41.945312 20.4375 -39.96875 C 20.582031 -39.375 20.492188 -38.441406 20.171875 -37.171875 C 19.859375 -35.910156 19.363281 -34.550781 18.6875 -33.09375 C 18.007812 -31.632812 17.25 -30.273438 16.40625 -29.015625 C 15.757812 -27.960938 15.28125 -27.300781 14.96875 -27.03125 C 14.65625 -26.757812 14.320312 -26.679688 13.96875 -26.796875 C 13.539062 -26.960938 13.367188 -27.320312 13.453125 -27.875 C 13.546875 -28.4375 13.953125 -29.476562 14.671875 -31 C 15.148438 -31.957031 15.582031 -32.929688 15.96875 -33.921875 C 16.363281 -34.921875 16.6875 -35.8125 16.9375 -36.59375 C 17.1875 -37.375 17.304688 -37.890625 17.296875 -38.140625 C 17.285156 -38.441406 17.101562 -38.46875 16.75 -38.21875 C 16.394531 -37.96875 15.785156 -37.421875 14.921875 -36.578125 C 13.597656 -35.296875 12.257812 -33.539062 10.90625 -31.3125 C 9.5625 -29.082031 8.316406 -26.582031 7.171875 -23.8125 C 6.503906 -22.125 5.898438 -20.445312 5.359375 -18.78125 C 4.828125 -17.113281 4.410156 -15.59375 4.109375 -14.21875 C 3.816406 -12.851562 3.6875 -11.785156 3.71875 -11.015625 L 3.75 -10.125 L 4.546875 -10.734375 C 4.765625 -10.910156 5.175781 -11.242188 5.78125 -11.734375 C 6.382812 -12.222656 6.972656 -12.726562 7.546875 -13.25 C 9.171875 -14.582031 10.476562 -15.609375 11.46875 -16.328125 C 12.457031 -17.046875 13.320312 -17.546875 14.0625 -17.828125 C 14.800781 -18.117188 15.578125 -18.28125 16.390625 -18.3125 C 17.234375 -18.34375 17.96875 -18.238281 18.59375 -18 C 19.226562 -17.757812 19.644531 -17.429688 19.84375 -17.015625 Z M 19.84375 -17.015625 "/></g></g></g><g fill="#ff3131" fill-opacity="1"><g transform="translate(179.314867, 236.134441)"><g><path d="M 13.984375 -17.453125 C 14.796875 -17.609375 15.890625 -17.804688 17.265625 -18.046875 C 18.640625 -18.296875 20.113281 -18.5625 21.6875 -18.84375 C 23.257812 -19.132812 24.78125 -19.390625 26.25 -19.609375 C 27.71875 -19.828125 28.957031 -19.976562 29.96875 -20.0625 C 30.988281 -20.144531 31.613281 -20.125 31.84375 -20 C 33.238281 -19.101562 33.945312 -17.984375 33.96875 -16.640625 C 34 -15.296875 33.328125 -14.21875 31.953125 -13.40625 C 31.859375 -13.363281 31.300781 -13.207031 30.28125 -12.9375 C 29.269531 -12.664062 28.03125 -12.34375 26.5625 -11.96875 C 25.101562 -11.601562 23.582031 -11.234375 22 -10.859375 C 20.414062 -10.484375 18.960938 -10.132812 17.640625 -9.8125 C 16.328125 -9.488281 15.378906 -9.253906 14.796875 -9.109375 C 11.796875 -8.359375 9.679688 -7.8125 8.453125 -7.46875 C 7.222656 -7.125 6.566406 -6.890625 6.484375 -6.765625 C 6.453125 -6.722656 6.375 -6.503906 6.25 -6.109375 C 6.132812 -5.722656 6.003906 -5.289062 5.859375 -4.8125 C 5.628906 -3.914062 5.296875 -2.878906 4.859375 -1.703125 C 4.429688 -0.535156 4.035156 0.507812 3.671875 1.4375 C 3.304688 2.363281 3.015625 2.941406 2.796875 3.171875 C 2.503906 3.523438 2.125 3.71875 1.65625 3.75 C 1.195312 3.789062 0.816406 3.664062 0.515625 3.375 C -0.109375 2.800781 -0.171875 1.753906 0.328125 0.234375 C 0.597656 -0.578125 0.84375 -1.421875 1.0625 -2.296875 C 1.289062 -3.179688 1.457031 -3.9375 1.5625 -4.5625 C 1.675781 -5.1875 1.671875 -5.5 1.546875 -5.5 C 1.453125 -5.5 1.078125 -5.421875 0.421875 -5.265625 C -0.234375 -5.117188 -0.960938 -4.921875 -1.765625 -4.671875 C -2.566406 -4.484375 -3.476562 -4.285156 -4.5 -4.078125 C -5.519531 -3.867188 -6.328125 -3.734375 -6.921875 -3.671875 C -7.859375 -3.597656 -8.519531 -3.5625 -8.90625 -3.5625 C -9.289062 -3.570312 -9.71875 -3.675781 -10.1875 -3.875 C -11.40625 -4.4375 -12.128906 -5.273438 -12.359375 -6.390625 C -12.597656 -7.515625 -12.265625 -8.539062 -11.359375 -9.46875 C -10.484375 -10.351562 -9.175781 -11.195312 -7.4375 -12 C -5.695312 -12.800781 -3.597656 -13.546875 -1.140625 -14.234375 C 0.335938 -14.671875 1.359375 -15.023438 1.921875 -15.296875 C 2.492188 -15.566406 3.046875 -15.992188 3.578125 -16.578125 C 3.828125 -16.835938 4.039062 -17.171875 4.21875 -17.578125 C 4.40625 -17.992188 4.632812 -18.785156 4.90625 -19.953125 C 5.1875 -21.117188 5.609375 -22.929688 6.171875 -25.390625 C 7.160156 -29.734375 8.015625 -33.28125 8.734375 -36.03125 C 9.453125 -38.789062 10.09375 -40.9375 10.65625 -42.46875 C 11.21875 -44.007812 11.742188 -45.066406 12.234375 -45.640625 C 12.679688 -46.160156 13.171875 -46.453125 13.703125 -46.515625 C 14.234375 -46.578125 14.703125 -46.378906 15.109375 -45.921875 C 15.546875 -45.515625 15.773438 -45 15.796875 -44.375 C 15.816406 -43.757812 15.644531 -42.632812 15.28125 -41 C 15.164062 -40.570312 14.972656 -39.820312 14.703125 -38.75 C 14.441406 -37.675781 14.132812 -36.4375 13.78125 -35.03125 C 13.4375 -33.632812 13.070312 -32.210938 12.6875 -30.765625 C 12.3125 -29.316406 11.953125 -27.976562 11.609375 -26.75 C 11.273438 -25.53125 11.015625 -24.550781 10.828125 -23.8125 C 10.710938 -23.425781 10.984375 -23.539062 11.640625 -24.15625 C 12.296875 -24.78125 13.691406 -26.285156 15.828125 -28.671875 C 17.148438 -30.078125 18.335938 -31.332031 19.390625 -32.4375 C 20.441406 -33.539062 21.070312 -34.140625 21.28125 -34.234375 C 21.664062 -34.460938 21.929688 -34.578125 22.078125 -34.578125 C 22.222656 -34.585938 22.445312 -34.488281 22.75 -34.28125 C 23.363281 -33.914062 23.648438 -33.410156 23.609375 -32.765625 C 23.566406 -32.128906 23.179688 -31.242188 22.453125 -30.109375 C 21.960938 -29.410156 21.285156 -28.523438 20.421875 -27.453125 C 19.566406 -26.378906 18.601562 -25.242188 17.53125 -24.046875 C 16.46875 -22.859375 15.414062 -21.734375 14.375 -20.671875 C 13.34375 -19.609375 12.441406 -18.738281 11.671875 -18.0625 C 11.347656 -17.757812 11.0625 -17.5 10.8125 -17.28125 C 10.5625 -17.0625 10.457031 -16.953125 10.5 -16.953125 C 10.539062 -16.910156 10.898438 -16.941406 11.578125 -17.046875 C 12.253906 -17.148438 13.054688 -17.285156 13.984375 -17.453125 Z M 13.984375 -17.453125 "/></g></g></g><g fill="#ff3131" fill-opacity="1"><g transform="translate(214.491451, 234.906048)"><g><path d="M 8.578125 -29.5625 C 8.804688 -30.46875 8.992188 -31.253906 9.140625 -31.921875 C 9.285156 -32.585938 9.335938 -32.941406 9.296875 -32.984375 C 9.253906 -33.023438 8.847656 -32.945312 8.078125 -32.75 C 7.316406 -32.550781 6.441406 -32.304688 5.453125 -32.015625 C 4.460938 -31.722656 3.601562 -31.445312 2.875 -31.1875 C 2.15625 -30.925781 1.800781 -30.773438 1.8125 -30.734375 C 1.8125 -30.691406 1.960938 -30.566406 2.265625 -30.359375 C 2.578125 -30.160156 2.929688 -29.941406 3.328125 -29.703125 C 3.753906 -29.460938 4.253906 -29.128906 4.828125 -28.703125 C 5.398438 -28.273438 5.882812 -27.851562 6.28125 -27.4375 C 6.6875 -27.0625 7.03125 -26.75 7.3125 -26.5 C 7.59375 -26.257812 7.734375 -26.140625 7.734375 -26.140625 C 7.773438 -26.140625 7.878906 -26.472656 8.046875 -27.140625 C 8.222656 -27.816406 8.398438 -28.625 8.578125 -29.5625 Z M 6.453125 -24.296875 C 6.003906 -25.097656 5.285156 -25.894531 4.296875 -26.6875 C 3.304688 -27.488281 2.265625 -28.148438 1.171875 -28.671875 C 0.128906 -29.179688 -0.582031 -29.484375 -0.96875 -29.578125 C -1.351562 -29.679688 -1.972656 -29.671875 -2.828125 -29.546875 C -4.472656 -29.234375 -5.894531 -29.613281 -7.09375 -30.6875 C -7.882812 -31.382812 -8.367188 -32.132812 -8.546875 -32.9375 C -8.722656 -33.75 -8.566406 -34.460938 -8.078125 -35.078125 C -7.628906 -35.679688 -6.632812 -36.332031 -5.09375 -37.03125 C -3.5625 -37.726562 -1.664062 -38.429688 0.59375 -39.140625 C 2.851562 -39.859375 5.320312 -40.53125 8 -41.15625 C 10.6875 -41.78125 13.4375 -42.316406 16.25 -42.765625 C 19.132812 -43.242188 21.5 -43.59375 23.34375 -43.8125 C 25.195312 -44.03125 26.691406 -44.101562 27.828125 -44.03125 C 28.960938 -43.957031 29.878906 -43.742188 30.578125 -43.390625 C 31.273438 -43.035156 31.910156 -42.523438 32.484375 -41.859375 C 33.378906 -40.867188 33.628906 -39.851562 33.234375 -38.8125 C 33.035156 -38.289062 32.640625 -37.921875 32.046875 -37.703125 C 31.460938 -37.492188 30.488281 -37.328125 29.125 -37.203125 C 28.351562 -37.128906 27.171875 -36.957031 25.578125 -36.6875 C 23.992188 -36.425781 22.3125 -36.113281 20.53125 -35.75 C 18.75 -35.394531 17.179688 -35.039062 15.828125 -34.6875 L 13.59375 -34.15625 L 13.21875 -32.234375 C 13.101562 -31.710938 12.890625 -30.71875 12.578125 -29.25 C 12.273438 -27.789062 11.960938 -26.3125 11.640625 -24.8125 C 11.265625 -23.082031 10.984375 -21.5625 10.796875 -20.25 C 10.609375 -18.945312 10.523438 -18.039062 10.546875 -17.53125 C 10.566406 -16.800781 10.503906 -15.804688 10.359375 -14.546875 C 10.210938 -13.285156 10.015625 -11.90625 9.765625 -10.40625 C 9.515625 -8.90625 9.242188 -7.429688 8.953125 -5.984375 C 8.660156 -4.535156 8.382812 -3.269531 8.125 -2.1875 C 7.863281 -1.113281 7.632812 -0.367188 7.4375 0.046875 C 7.113281 0.796875 6.664062 1.21875 6.09375 1.3125 C 5.53125 1.414062 4.9375 1.203125 4.3125 0.671875 C 3.96875 0.347656 3.71875 -0.140625 3.5625 -0.796875 C 3.40625 -1.453125 3.390625 -2.457031 3.515625 -3.8125 C 3.640625 -5.164062 3.9375 -7.039062 4.40625 -9.4375 C 4.875 -11.832031 5.507812 -14.972656 6.3125 -18.859375 L 7.203125 -23.109375 Z M 6.453125 -24.296875 "/></g></g></g></svg>